<svg width="1898" height="367" viewBox="0 0 1898 367" fill="none" xmlns="http://www.w3.org/2000/svg">
<path d="M194.47 1.2373C196.181 0.563274 196.419 0.456704 198.163 0.988281C199.217 3.19067 198.913 4.06906 198.267 6.88184L197.664 9.62598C194.602 23.424 187.675 53.2591 188.369 67.3828C188.394 67.8961 188.431 68.3891 188.477 68.8594C188.546 69.565 188.638 70.2211 188.757 70.8213L189.753 71.0547L190.466 69.0635L190.71 69.0127C191.146 68.9285 191.723 68.8508 192.418 68.7803C192.974 68.7239 193.606 68.672 194.302 68.624C203.703 67.9765 224.853 68.0821 229.758 68.5635C251.929 68.1481 317.928 70.8999 334.538 65.5654C339.473 63.9811 353.41 57.541 357.433 61.46C358.549 62.5478 358.927 64.0641 358.831 65.5566C358.623 68.784 357.04 71.1613 354.732 73.2725C354.163 73.7927 353.615 74.3355 353.047 74.8564L353.025 75.1855C352.735 78.6426 350.322 83.8001 346.735 89.5264C345.347 91.743 343.783 94.0456 342.099 96.3672C333.956 107.588 322.996 119.268 315.445 123.999C315.185 124.162 314.929 124.318 314.677 124.464C313.921 124.903 313.203 125.265 312.531 125.541C312.307 125.633 312.088 125.716 311.875 125.789C310.168 126.372 308.801 126.329 307.906 125.505C307.992 125.227 308.08 124.946 308.172 124.665C308.446 123.821 308.744 122.962 309.053 122.091C311.938 113.963 315.858 104.805 311.666 97.0596C311.381 96.5373 311.083 96.0214 310.773 95.5127L310.461 95.0059L308.627 94.2471C296.618 93.1847 283.066 91.6154 271.862 95.5215L272.145 95.8438C272.873 96.6933 274.016 98.1669 274.013 99.0137C273.975 109.48 275.964 128.821 273.811 138.497C276.492 137.267 279.181 136.713 282.036 136.014C290.648 133.379 307.108 136.005 315.349 139.729C320.479 147.497 334.473 149.08 332.695 159.353L331.051 161.072C330.334 161.013 329.646 160.817 328.983 160.519C328.763 160.419 328.544 160.308 328.329 160.187C325.744 158.732 323.542 155.809 321.472 153.556C304.437 150.919 292.022 158.555 277.274 166.176C275.307 167.193 273.589 170.411 272.628 172.341C273.931 176.485 272.907 216.174 273.112 224.572C273.521 225.899 274.395 227.977 275.238 230.03C277.698 229.601 280.063 229.187 281.194 228.981C281.192 228.978 281.19 228.974 281.188 228.97C283.886 225.205 291.293 226.274 295.949 225.139C313.721 220.801 323.228 208.236 335.884 195.851C336.948 193.283 336.216 194.106 338.635 192.748C340.162 192.294 340.643 192.161 342.22 191.975C340.859 211.774 337.894 228.711 347.363 246.784C349.23 250.347 352.614 256.085 351.982 259.863L350.402 260.21C347.122 258.428 339.673 254.324 337.985 251.273C337.32 251.441 336.883 251.533 336.57 251.613C335.632 251.856 335.806 252 334.268 253.791L336.006 254.945C334.387 257.06 325.665 257.552 319.443 257.885C317.888 257.968 316.488 258.042 315.396 258.128C315.032 258.157 314.702 258.186 314.411 258.219C305.129 259.255 294.76 262.096 285.635 262.687C266.667 267.573 251.935 270.123 232.75 276.828C227.963 278.501 215.643 283.143 206.55 286.286C204.897 286.858 203.35 287.38 201.975 287.825C199.912 288.494 198.233 288.99 197.159 289.224L196.602 289.307L196.156 287.166C194.956 286.661 194.213 286.145 193.13 285.458C195.623 283.358 200.457 278.864 202.858 277.524C203.693 276.556 207.939 272.277 212.997 267.259C217.255 263.035 222.089 258.286 225.945 254.549C229.724 250.887 232.566 248.195 233.011 247.915L234.865 242.072C233.294 239.154 231.48 238.008 228.614 236.713C226.294 232.149 227.391 219.075 227.59 212.422C227.603 211.979 227.612 211.563 227.616 211.182L227.938 165.513C228.022 158.603 227.961 151.116 227.902 143.521C227.873 139.723 227.845 135.897 227.836 132.104C227.83 129.574 227.833 127.058 227.851 124.574C227.868 122.09 227.899 119.637 227.95 117.233C228.027 113.627 228.148 110.129 228.333 106.799C228.27 102.089 227.941 96.9424 229.232 92.4561L229.363 92.0234C229.116 91.0549 228.863 90.74 228.395 89.8623L225.195 89.1396C215.138 84.6246 197.592 76.1852 187.772 73.7109C186.916 80.5643 186.077 89.1348 184.796 95.7969C184.533 102.397 181.282 126.973 178.015 131.686L176.587 133.146C174.291 132.038 173.96 133.03 171.866 131.426C168.68 128.395 164.348 111.935 162.27 105.202L161.885 103.992C160.564 99.0401 159.489 95.072 157.831 91.3369C157.636 90.8977 157.433 90.4613 157.221 90.0273C155.839 87.2049 154.06 84.466 151.512 81.4756C148.81 80.8016 146.466 80.0322 144.155 79.167C143.578 78.9507 143.002 78.7283 142.423 78.5C141.844 78.2716 141.261 78.0372 140.671 77.7969L136.99 76.2842C123.4 77.2094 114.536 83.1815 107.661 94.8252C108.106 94.9765 108.507 95.1923 108.874 95.4629C109.057 95.5981 109.232 95.7479 109.399 95.9092C109.903 96.3932 110.342 96.9884 110.752 97.6611C110.82 97.7731 110.887 97.8878 110.954 98.0039C112.223 100.213 113.257 103.14 115.174 105.698C115.689 106.189 116.669 107.031 116.995 107.586C129.843 117.24 174.356 153.943 191.844 162.211C192.455 162.498 195.205 160.443 196.16 159.744L196.916 160.334L196.862 162.177L198.409 162.971L199.552 161.067L199.848 161.167C202.869 162.312 204.703 166.877 206.344 169.61C218.086 189.179 221.441 214.909 206.545 234.124C205.073 236.7 203.703 238.817 202.262 240.706C202.131 240.878 201.998 241.047 201.866 241.215C199.219 244.577 196.281 247.256 192.007 250.646C172.121 268.229 154.653 278.966 130.245 289.794C128.677 290.489 121.025 293.968 119.766 293.987C107.042 301.363 98.8596 306.707 87.8477 314.321C86.2744 315.409 84.6429 316.543 82.9326 317.736C82.1928 318.478 81.4505 319.216 80.707 319.951C73.6425 326.937 66.4739 333.695 60.3389 341.387C59.693 342.197 59.0582 343.017 58.4365 343.849C55.6396 347.591 53.101 351.571 50.9424 355.911C50.0844 357.636 48.7397 361.52 47.1602 363.898C47.0166 364.115 46.8708 364.318 46.7236 364.507C46.1345 365.261 45.5169 365.772 44.8838 365.864C43.7134 364.895 43.6141 364.643 43.1582 364.603C43.0669 364.595 42.9614 364.595 42.8301 364.6C42.5676 364.61 42.2023 364.638 41.6426 364.651L40.0342 366.615C39.9874 366.468 39.944 366.32 39.9023 366.172C37.2766 356.854 44.5553 346.502 41.0137 340.337C39.3097 335.321 40.1829 303.647 40.2617 296.283C40.1485 279.482 40.3344 263.094 38.3672 246.388C38.1125 244.225 38.5042 240.966 38.9053 238.222L39.2861 235.709C39.4436 232.145 40.1798 227.294 40.623 223.654C40.9538 220.349 41.5194 214.892 42.2207 208.671C42.361 207.427 42.5059 206.152 42.6562 204.857C44.1601 191.915 46.132 177.022 47.7861 171.267L48.748 170.866L49.1582 171.747C48.2468 174.064 49.5074 190.085 50.0391 193.497L51.375 193.749C51.9289 185.211 52.2877 182.337 54.3789 175.59C54.6776 174.626 55.0117 173.583 55.3867 172.434C55.618 173.1 55.8484 173.767 56.0771 174.435C63.1697 195.127 69.0332 216.221 73.6367 237.606C73.866 238.306 74.3552 239.443 74.998 240.833C75.4267 241.76 75.9239 242.799 76.458 243.896C79.328 249.791 83.2663 257.354 83.3994 258.094C83.4025 258.111 83.4035 258.125 83.4023 258.135C83.1253 257.984 82.8811 257.851 82.6523 257.731C81.9666 257.372 81.4201 257.116 80.5508 256.75L80.0293 257.62C84.097 260.978 86.4828 261.4 90.9814 261.985C91.6243 262.069 92.3106 262.156 93.0508 262.256C93.1268 262.247 93.2095 262.24 93.2979 262.233C94.6256 262.134 97.2607 262.228 98.5742 262.147C120.584 260.799 131.856 255.758 146.493 240.245C148.242 237.65 150.466 234.977 151.267 232.014L153.659 228.07C153.679 228.013 153.697 227.949 153.713 227.88C153.745 227.742 153.769 227.582 153.785 227.402C154.017 224.801 152.664 218.149 152.755 215.917C152.953 211.091 152.294 207.854 151.048 205.301C150.935 205.069 150.816 204.842 150.693 204.621C148.237 200.192 143.917 197.751 139.349 191.861C136.676 189.479 133.605 185.736 130.396 182.218C129.862 181.632 129.323 181.052 128.782 180.485C128.061 179.73 127.334 178.999 126.606 178.31C126.424 178.137 126.242 177.968 126.06 177.801C124.966 176.799 123.871 175.901 122.782 175.165C114.782 169.756 105.707 165.84 97.4883 160.438C95.2476 159.566 92.9772 158.552 90.6865 157.461C89.923 157.097 89.1574 156.725 88.3896 156.347C82.631 153.511 76.7621 150.336 70.9219 147.856C70.1431 147.526 69.3644 147.208 68.5869 146.904C65.8663 145.842 63.1558 144.961 60.4697 144.366C59.9459 144.25 58.6816 144.194 57.126 144.173C56.1927 144.16 55.1545 144.16 54.1084 144.167C51.3184 144.186 48.472 144.259 47.4092 144.285C43.7852 144.745 32.7419 146.085 29.5088 145.71L29.7285 144.659C34.6161 140.419 39.1306 135.971 43.7646 131.468C45.2721 129.495 47.2523 126.223 48.6562 124.057C48.8892 123.379 49.1055 122.802 49.3203 122.279C49.965 120.71 50.6017 119.622 51.6719 117.752C51.3096 107.691 50.7017 101.362 49.5234 91.3457C49.1122 87.0445 48.9287 84.0268 46.4023 80.6641L46.1504 80.3379C38.6392 76.6177 12.4493 71.1538 3.08789 67.1377C2.74737 66.9916 2.42904 66.8472 2.13477 66.7051C1.10534 66.208 0.369451 65.7358 0 65.2959L4.4043 63.4785C4.26507 63.0845 4.22569 62.9317 4.23633 62.7607C4.2417 62.6752 4.25998 62.5846 4.28418 62.457C4.30839 62.3294 4.33859 62.1636 4.36914 61.9287C8.22786 59.5379 13.7437 58.8411 18.2451 58.2285L19.6621 57.9258C26.9944 56.4328 37.8803 55.2568 45.126 54.2861C70.3927 50.7615 95.826 48.5538 121.322 47.6729C133.554 47.3212 146.264 47.9361 158.529 47.5439C159.581 47.5102 160.284 47.0725 160.914 46.3721C161.094 46.1718 161.269 45.9498 161.443 45.71C162.055 44.8707 162.673 43.8086 163.576 42.666L164.206 42.041C170.753 35.4278 178.258 24.2915 183.595 16.6562C186.515 12.4771 189.12 3.46109 193.131 0L194.47 1.2373ZM1518.18 0C1517.39 2.71443 1499.09 18.5847 1495.75 22.1016L1493.72 24.3701C1492.36 25.8785 1491 27.3788 1489.62 28.8711C1488.25 30.3632 1486.86 31.8474 1485.47 33.3232C1484.08 34.7991 1482.68 36.2672 1481.27 37.7266C1480.56 38.4563 1479.86 39.1845 1479.15 39.9102L1478.3 43.8779C1475.03 47.9174 1471.91 52.1681 1468.88 56.5469C1468.13 57.6414 1467.38 58.7442 1466.64 59.8535C1461.44 67.6198 1456.53 75.7172 1451.71 83.7051C1449.64 87.1284 1447.59 90.5323 1445.54 93.8809C1444.86 94.9969 1444.18 96.1074 1443.49 97.21C1441.72 100.068 1437.13 108.041 1433.22 114.332C1432.43 115.59 1431.68 116.781 1430.98 117.851C1429.57 119.989 1428.39 121.642 1427.65 122.373C1428.48 124.16 1429.28 125.957 1430.24 127.679C1441.3 142.923 1450.33 159.454 1460.57 175.203C1463.25 179.326 1467.1 182.629 1469.74 186.752C1473.67 192.869 1476.45 199.732 1480.36 205.907C1491.67 223.865 1509.57 236.682 1530.22 241.617L1533.83 247.312L1520.75 246.532C1483.1 243.379 1478.48 238.706 1445.83 224.041C1440.49 221.955 1435.22 220.817 1429.53 220.325C1429.27 220.312 1429.07 220.286 1428.89 220.245C1428.71 220.204 1428.55 220.148 1428.4 220.077C1428.1 219.935 1427.81 219.73 1427.38 219.455C1422.18 200.787 1405.85 185.375 1400.89 166.886C1400.46 165.298 1399.92 163.751 1399.4 162.191L1397.88 161.902C1397.38 164.101 1396.6 166.519 1396.46 168.757C1396.11 170.635 1395.8 172.501 1395.17 174.313C1394.05 179.738 1391.22 184.851 1388.23 189.713C1387.38 191.102 1386.51 192.471 1385.67 193.821C1383.98 196.521 1382.39 199.146 1381.18 201.707C1381.03 202.027 1380.88 202.346 1380.74 202.664C1380.26 203.778 1379.85 204.88 1379.55 205.971C1379.47 206.282 1379.39 206.593 1379.32 206.902C1379.29 207.057 1379.25 207.213 1379.23 207.367C1378.63 210.507 1379.25 214.409 1379.49 217.603L1378.82 217.782L1376.76 215.139L1376.25 218.096L1374.93 217.91L1373.75 218.303C1366.68 222.635 1358.75 225.656 1351.37 229.441C1339.49 235.527 1325.01 244.529 1312.92 248.82C1309.59 251.619 1304.95 253.684 1300.71 254.507L1297.56 252.77C1296.9 252.2 1296.91 251.882 1296.63 251.076C1297.07 249.998 1297.84 248.996 1298.77 248.085C1299.08 247.781 1299.41 247.487 1299.75 247.204C1301.11 246.072 1302.65 245.108 1303.96 244.346C1315.56 233.357 1327.43 221.697 1337.26 209.091C1353.8 187.874 1366.98 164.029 1382.51 142.05L1378.74 137.562C1375.36 133.617 1371.5 126.161 1368.41 121.764C1359.06 108.455 1348.03 87.0707 1336.87 70.1777C1336.38 69.4272 1335.88 68.6849 1335.38 67.9531C1331.41 62.0975 1327.43 56.8801 1323.51 52.8662L1322.78 52.1279C1321.44 48.099 1322.88 43.8332 1323.2 39.8447C1322.85 40.1475 1322.53 40.4456 1322.24 40.7383C1321.95 41.031 1321.69 41.3188 1321.45 41.6016C1318.11 45.561 1319.6 48.5566 1317.24 50.8447C1304.46 63.2467 1268.71 95.8019 1251.28 95.3926C1250.3 91.2036 1257.9 81.3152 1260.2 76.7529C1259.53 72.3888 1257.86 66.2109 1257.86 62.4824L1255.21 62.6836C1245.59 64.1005 1226.41 59.7869 1214.51 62.0645C1212.79 64.6408 1215.38 64.7098 1213.29 65.2354L1211.74 64.54C1210.2 66.0276 1210.68 65.4381 1210.08 67.7393L1212.13 68.3398C1214.3 72.8481 1212.29 100.655 1213.42 109.106C1213.44 109.24 1213.46 109.37 1213.48 109.494C1213.67 109.41 1213.86 109.327 1214.05 109.246C1217.7 107.7 1222.25 106.604 1227.16 105.951C1227.68 105.883 1228.2 105.819 1228.72 105.76C1239.73 104.524 1252.21 105.451 1260.28 108.462C1270.12 112.133 1286.26 117.064 1290.87 127.142C1291.65 128.854 1292.47 131.687 1291.83 133.505C1291.48 133.606 1291.14 133.667 1290.81 133.693C1290.58 133.711 1290.36 133.712 1290.15 133.7C1289.93 133.688 1289.72 133.662 1289.51 133.624C1289.3 133.586 1289.09 133.536 1288.88 133.476C1288.15 133.263 1287.42 132.92 1286.67 132.52C1282.77 130.454 1279.9 126.67 1275.97 124.679C1275.85 124.616 1275.72 124.555 1275.59 124.495C1275.34 124.376 1275.07 124.263 1274.8 124.156C1273.97 123.834 1273.07 123.564 1272.1 123.341C1271.78 123.267 1271.45 123.198 1271.11 123.134C1266.57 122.269 1260.83 122.322 1255.38 122.845C1254.58 122.922 1253.78 123.01 1252.99 123.106C1249.82 123.493 1246.84 124.021 1244.34 124.598C1243.72 124.742 1243.12 124.889 1242.56 125.037C1242.28 125.111 1242.01 125.186 1241.75 125.261C1239.36 125.946 1236.64 126.81 1233.83 127.86C1233.13 128.123 1232.43 128.398 1231.72 128.685C1230.66 129.114 1229.59 129.57 1228.53 130.054C1228.18 130.215 1227.83 130.379 1227.48 130.546C1225.72 131.382 1224.01 132.294 1222.38 133.284C1222.05 133.482 1221.73 133.683 1221.41 133.888C1220.46 134.501 1219.54 135.143 1218.67 135.813C1218.38 136.037 1218.1 136.264 1217.82 136.494C1215.59 138.334 1213.75 140.381 1212.51 142.645C1212.27 143.064 1212.05 143.487 1211.82 143.913C1211.6 144.339 1211.39 144.768 1211.18 145.199C1210.86 145.847 1210.56 146.502 1210.28 147.162C1210.18 147.382 1210.09 147.604 1209.99 147.825L1213.57 145.795C1213.63 145.847 1213.68 145.896 1213.73 145.943C1214.07 146.275 1214.22 146.527 1214.23 147.105C1214.33 150.526 1212.44 155.323 1212.13 159L1211.8 160.101C1211.48 161.197 1211.13 162.28 1210.61 163.31C1211.49 166.88 1211.25 173.514 1211.23 179.341C1211.23 180.312 1211.23 181.261 1211.25 182.169C1211.3 185.499 1211.52 188.288 1212.2 189.65C1213.43 200.726 1213.86 216.673 1223.32 224.14C1225.87 226.152 1228.77 227.076 1231.85 227.153C1232.11 227.16 1232.36 227.16 1232.62 227.155C1233.4 227.14 1234.19 227.072 1234.98 226.957C1239.44 226.309 1243.84 224.483 1247.95 222.128C1248.19 221.99 1248.43 221.849 1248.67 221.707C1250.83 220.428 1252.91 219.012 1254.87 217.555C1255.09 217.393 1255.3 217.23 1255.52 217.067C1256.38 216.417 1257.21 215.76 1258.02 215.105C1257.52 214.219 1257.38 214.33 1256.39 214.048C1249.96 213.854 1243.38 214.297 1237 213.389C1233.07 212.83 1227.35 211.604 1224.81 208.271L1225.27 207.261C1225.52 207.194 1225.77 207.138 1226.02 207.088L1225.98 207.074C1229.88 206.418 1236.57 205.286 1240.31 204.644L1239.34 204.546C1250.66 203.911 1262.24 197.224 1272.28 192.519C1277.23 187.318 1285.4 183.399 1291.44 179.311C1297.63 175.124 1303.63 170.644 1309.64 166.207L1310.51 165.115C1314.88 159.678 1319.59 154.583 1323.05 148.494L1324.01 148.573L1325.29 150.334L1327.38 148.895C1328.65 151.907 1325.96 157.039 1324.77 159.986C1322.14 166.502 1318.93 173.08 1316.92 179.803C1314.18 188.968 1306.09 223.94 1302.49 229.651C1300.41 229.947 1299.43 229.906 1297.77 231.29C1297.72 231.375 1297.67 231.461 1297.61 231.547C1296.9 232.577 1295.5 233.656 1293.66 234.749C1293.35 234.931 1293.03 235.114 1292.7 235.297C1292.54 235.388 1292.37 235.48 1292.2 235.571C1291.51 235.938 1290.79 236.304 1290.03 236.671C1288.89 237.221 1287.67 237.77 1286.41 238.313C1285.57 238.676 1284.71 239.035 1283.84 239.392C1276.43 242.42 1268.24 245.19 1264.84 246.941C1259.78 249.548 1254.78 252.426 1249.81 255.451C1248.82 256.056 1247.83 256.666 1246.84 257.282C1244.86 258.514 1242.89 259.766 1240.93 261.029C1238.96 262.292 1237 263.567 1235.05 264.846C1229.19 268.682 1223.39 272.554 1217.63 276.245C1214.61 278.182 1211.57 280.098 1208.52 281.999C1203.45 285.168 1198.34 288.297 1193.23 291.419C1187.1 295.165 1180.97 298.9 1174.86 302.678C1173.84 303.307 1172.82 303.939 1171.8 304.571C1170.79 305.203 1169.77 305.837 1168.76 306.473C1168.36 306.721 1167.93 306.997 1167.47 307.296C1162.66 310.432 1154.66 316.104 1148.22 319.796C1147.91 319.972 1147.61 320.142 1147.31 320.309C1144.91 321.639 1142.78 322.651 1141.16 323.095L1140.77 322.174C1139.1 321.839 1137.78 321.616 1136.35 320.611C1136.23 318.425 1138.45 316.578 1139.83 314.884C1140.75 313.12 1142 311.485 1143.11 309.783C1143.2 309.642 1143.29 309.499 1143.38 309.356C1143.47 309.214 1143.56 309.071 1143.65 308.927C1143.83 308.639 1144 308.347 1144.16 308.053C1144.85 306.794 1145.54 305.523 1146.22 304.239C1146.9 302.956 1147.57 301.66 1148.22 300.354C1149.21 298.394 1150.16 296.408 1151.07 294.402C1151.37 293.734 1151.67 293.063 1151.96 292.39C1152.98 290.033 1153.93 287.648 1154.78 285.242C1155.03 284.555 1155.26 283.866 1155.49 283.175C1155.72 282.484 1155.94 281.791 1156.15 281.098C1156.36 280.403 1156.56 279.707 1156.75 279.01C1156.94 278.313 1157.13 277.615 1157.3 276.915C1157.38 276.565 1157.47 276.215 1157.55 275.864L1157.66 275.442C1158.77 271.077 1158.09 266.385 1157.38 261.99C1155.22 248.627 1146.41 241.99 1136.21 234.694C1139.17 234.15 1142.09 233.253 1144.99 232.464C1144.83 231.612 1144.67 231.42 1144.17 230.752L1140.42 230.388L1140.2 229.69C1143.37 228.009 1147.38 226.455 1149.88 223.866C1152.1 221.559 1151.89 219.236 1151.85 216.229C1148.22 200 1151.64 181.156 1151.78 164.439C1154.37 151.617 1152.6 137.327 1154.01 124.206C1153.32 117.91 1154.55 101.516 1154.93 94.3828C1154.91 85.5156 1154.6 72.5301 1153.55 63.7168C1152.35 62.5087 1151.37 62.1713 1150.02 61.8428L1148.51 61.4854L1145.79 60.3271C1133.26 54.9867 1123.34 50.4871 1110.08 45.2861L1107.19 44.1602C1104.33 43.2995 1101.49 42.351 1098.69 41.3164L1098.4 40.4209C1103.05 36.403 1136.89 37.0483 1144.61 37.166C1172.06 35.9574 1201.5 36.3836 1228.53 34.9756C1244.93 33.5774 1265.63 35.0931 1282.42 33.5547C1287.28 33.1093 1296.21 30.8786 1301.29 29.709L1305.17 28.4795C1314.55 25.5161 1325.88 21.8748 1333.84 17.082C1336.59 15.4288 1337.58 9.4458 1342.02 9.96289C1341.86 11.1576 1341.7 12.1858 1341.49 13.373L1343.76 12.5244C1343.62 19.7274 1335.12 31.9818 1331.01 37.6934C1340.88 38.3014 1379.55 41.0468 1386.79 39.5244L1388.17 40.1807C1387.82 43.8843 1386.39 45.6486 1385.11 46.7959C1384.85 47.0254 1384.59 47.2301 1384.36 47.4209C1383.25 48.3108 1382.47 48.8954 1382.99 50.249C1387.74 62.557 1406.11 85.6416 1410.33 96.9082C1410.71 97.4097 1410.91 98.0099 1411.06 98.6895L1413.58 94.3633L1413.45 94.1621C1415.58 86.2388 1424.35 74.5165 1429.43 67.5371C1432.91 59.8081 1440.14 55.7114 1438.6 46.4912L1437.99 46.374C1437.77 46.0736 1437.39 45.6244 1437.31 45.335C1434.88 37.1286 1441.66 36.0746 1447.54 34.4141C1463.69 29.8496 1477.01 20.689 1492.01 13.96C1494.67 11.1822 1511.29 2.82172 1515.35 1.19141L1518.18 0ZM829.266 69.2568C835.637 68.1428 852.812 68.609 859.358 68.6504C894.151 68.8798 928.809 71.8357 963.563 72.8291C977.296 73.2212 991.232 69.8433 1004.87 70.5684C1009.34 70.8055 1021.89 74.4536 1025.52 76.9727L1025.62 78.1729C1023.16 80.8622 1013.15 84.0453 1008.33 88.2266C1000.24 95.2433 956.656 139.543 946.613 132.999C946.973 129.52 949.351 124.049 950.116 119.938C949.929 112.51 949.088 111.24 946.688 104.241C946.988 102.56 947.243 101.139 947.453 99.9775C946.655 99.5959 945.78 99.3116 944.912 99.0381L944.049 98.7646C940.183 98.9796 921.381 96.4122 913.433 96.0049L912.698 95.9727C910.666 98.5272 911.318 97.7694 907.644 98.7402L907.868 99.8086L909.474 100.767C909.796 101.106 910.201 101.53 910.688 102.04C910.973 116.538 911.049 131.037 911.416 145.535C911.401 145.885 911.378 146.236 911.363 146.586C920.585 142.275 941.456 142.633 951.105 146.298L951.557 146.475C953.005 146.87 954.425 147.241 955.814 147.623C957.204 148.005 958.562 148.398 959.886 148.838C960.327 148.985 960.764 149.137 961.197 149.296C961.847 149.534 962.488 149.786 963.119 150.058C963.54 150.239 963.957 150.428 964.369 150.628C964.781 150.828 965.189 151.038 965.593 151.259C965.996 151.479 966.395 151.711 966.789 151.955C968.564 153.055 970.246 154.41 971.821 156.139C973.774 158.153 977.487 162.465 980.187 166.847C980.504 167.362 980.807 167.879 981.092 168.393C982.588 171.091 983.573 173.716 983.393 175.744C983.375 175.937 983.347 176.125 983.309 176.307C983.25 176.579 983.167 176.839 983.057 177.084C977.079 177.309 969.354 166.811 963.879 163.166C958.932 163.039 952.821 162.652 947.069 162.955C946.464 162.987 945.862 163.026 945.267 163.074C944.671 163.123 944.081 163.18 943.499 163.247C942.916 163.314 942.341 163.391 941.775 163.479C941.21 163.566 940.654 163.665 940.109 163.775C939.564 163.886 939.03 164.009 938.509 164.146C937.727 164.35 936.974 164.584 936.256 164.852C926.843 168.356 913.944 171.94 911.964 183.312L912.616 183.422L915.541 181.134L916.568 181.505C913.824 186.1 913.576 187.313 913.111 192.602C913.066 201.165 913.328 209.728 913.891 218.273C913.961 219.557 914.307 223.926 914.54 227.382C914.633 228.764 914.708 230.001 914.74 230.836C914.748 231.045 914.754 231.228 914.756 231.383L914.754 231.754L914.894 232.48C916.479 240.255 922.208 256.284 929.146 259.094C933.932 261.031 950.85 256.805 953.101 250.388C949.035 244.83 926.447 245.511 924.766 237.552C928.366 233.987 939.113 237.592 944.341 236.432C972.758 230.116 996.818 209.66 1027.87 212.541C1025.56 212.328 1031.14 215.635 1030.86 215.473C1023.39 221.781 1021.69 217.247 1013.69 228.692L1013.63 229.291L1014.09 232.407C1013.64 235.259 1012.32 238.687 1010.93 242.13C1010.4 243.421 1009.87 244.715 1009.36 245.98C1008.52 248.091 1007.77 250.126 1007.29 251.948C1007.25 252.084 1007.22 252.221 1007.19 252.358C1007.14 252.537 1007.1 252.716 1007.07 252.896C1006.9 253.695 1006.77 254.512 1006.68 255.341C1006.62 255.838 1006.58 256.341 1006.54 256.846C1006.51 257.323 1006.49 257.804 1006.47 258.286C1006.45 258.823 1006.43 259.362 1006.43 259.9C1006.4 262.629 1006.54 265.364 1006.51 267.894C1006.49 269.32 1006.77 272.227 1006.44 274.321C1006.37 274.72 1006.29 275.089 1006.17 275.413C1005.97 275.981 1005.69 276.41 1005.28 276.615C1004.12 277.195 1003.18 277.354 1001.93 277.594L1000.49 278.197C989.954 282.554 971.1 289.605 957.068 297.209C956.4 297.571 955.743 297.934 955.098 298.299C949.294 301.578 944.491 304.94 941.724 308.216L941.523 308.572C940.499 310.35 939.133 312.097 937.648 313.759C937.253 314.202 936.848 314.639 936.439 315.069C935.215 316.359 933.952 317.586 932.769 318.722L930.443 318.58C927.392 313.412 927.592 309.085 926.148 303.399L926.004 302.845C925.922 302.928 925.84 303.01 925.759 303.093C925.054 300.879 924.174 298.487 923.394 296.489C923.455 296.437 923.519 296.385 923.581 296.332C923.384 296.043 923.188 295.763 922.997 295.49C922.77 294.923 922.557 294.401 922.366 293.943L922.031 294.133C918.644 289.482 916.041 287 911.528 282.349L911.382 282.303C907.472 280.809 851.757 246.169 845.259 242.004C849.106 237.288 855.039 232.817 859.854 228.915C860.566 227.886 860.986 226.083 861.391 224.803L860.956 220.713C860.251 207.439 860.708 189.782 860.431 176.062C860.191 164.137 859.156 142.87 859.884 131.856C859.494 129.59 859.147 120.817 859.088 112.055C859.077 110.412 859.075 108.769 859.086 107.17C859.104 104.504 859.155 101.959 859.245 99.7324C859.281 98.842 859.325 98.0022 859.374 97.2266C859.523 94.8996 859.733 93.1459 860.019 92.3096L857.086 90.9082C850.201 88.2788 837.601 79.6047 830.251 75.46C827.761 74.3969 825.361 73.7176 824.581 70.9424C826.381 69.4355 826.119 69.8552 828.684 69.3701L829.266 69.2568ZM880.498 315.052L880.263 315.031C880.543 314.982 880.825 314.934 881.108 314.884L880.498 315.052ZM703.577 39.3359C711.068 39.7092 727.47 49.9684 731.656 52.2539C742.517 55.2178 776.671 64.3232 784.434 69.7012C800.739 77.7035 842.724 106.282 844.831 125.188L844.557 125.662L844.085 128.18L843.26 128.098C836.206 127.757 830.692 127.653 823.99 127.748L820.996 127.802C816.609 128.68 813.211 129.124 809.349 131.408L808.771 131.744C805.712 133.555 787.613 147.523 783.975 150.934C783.857 151.044 783.755 151.143 783.669 151.23L783.99 151.917C784.55 153.063 784.623 152.99 784.521 154.122C784.503 154.311 784.481 154.533 784.456 154.8C784.768 155.263 785.079 155.731 785.391 156.203C795.045 170.848 804.659 189.993 813.211 205.376C816.564 211.406 824.881 226.156 827.416 232.035C828.671 234.035 833.579 242.637 836.163 247.818C836.486 248.466 836.772 249.061 837.011 249.582C837.408 250.45 837.674 251.116 837.751 251.488C849.488 268.692 854.536 284.74 872.011 299.522C877.165 303.887 883.689 307.399 884.691 312.622C884.724 312.793 884.752 312.966 884.772 313.141C884.783 313.228 884.792 313.317 884.799 313.405L885.919 313.562L883.144 314.325C877.706 312.156 871.759 310.666 866.101 308.343C850.538 301.956 837.368 294.103 824.108 283.932C819.916 281.844 814.876 277.561 809.632 272.752C808.422 271.642 807.2 270.505 805.977 269.359C800.673 264.397 795.314 259.294 790.544 255.722C790.177 255.447 789.814 255.181 789.454 254.925C788.735 254.413 788.03 253.941 787.344 253.514C784.524 251.754 775.877 245.975 774.849 243.167C766.449 223.92 755.409 205.502 745.441 187.038C745.132 186.466 744.83 185.895 744.534 185.325C743.646 183.616 742.808 181.916 741.958 180.221C740.825 177.96 739.669 175.708 738.346 173.454L736.921 174.071C736.973 174.23 737.034 174.389 737.094 174.549C739.156 201.186 738.729 228.088 744.309 254.511C745.516 260.257 749.446 266.358 753.398 270.645C755.986 273.442 760.418 274.988 760.051 279.04C759.522 279.295 758.869 279.454 758.121 279.532C757.907 279.555 757.685 279.57 757.456 279.579C753.907 279.725 748.622 278.36 743.959 276.744C743.357 276.536 742.765 276.324 742.189 276.109C740.75 275.574 739.406 275.029 738.238 274.518C737.771 274.313 737.331 274.114 736.925 273.923C736.316 273.636 735.782 273.367 735.339 273.125L735.086 272.992C733.613 272.182 731.421 270.413 728.862 268.15C728.26 267.618 727.638 267.058 727 266.477C720.302 260.376 711.883 251.925 707.094 248.124C706.559 247.607 705.99 247.131 705.393 246.692C705.094 246.473 704.787 246.263 704.475 246.062C704.006 245.76 703.522 245.478 703.025 245.214C702.694 245.038 702.357 244.87 702.016 244.709C701.503 244.468 700.979 244.244 700.446 244.035C700.091 243.896 699.732 243.763 699.369 243.637C691.027 240.731 680.88 241.106 676.657 238.464C676.474 238.349 676.301 238.228 676.141 238.102L675.841 237.4C675.961 237.004 676.676 236.103 677.722 234.926C678.245 234.337 678.851 233.679 679.507 232.98C682.786 229.487 687.314 224.976 688.974 223.004C689.446 220.966 689.83 219.052 690.198 217.063L690.563 215.043C690.473 206.051 689.626 194.072 688.816 185.139C686.341 168.312 688.853 147.13 686.573 132.126L685.269 130.626C686.386 123.138 688.816 102.987 683.709 97.5674L674.198 91.458C672.196 90.7563 669.257 89.9386 668.379 88.2715C675.069 80.8853 686.394 81.3555 695.536 76.3623C702.368 72.6271 706.997 68.3296 713.356 63.9541L711.639 61.5752C710.716 58.4421 710.071 56.6751 709.943 53.4199L712.621 52.3867C711.623 48.5505 701.065 46.0092 700.254 40.541C700.743 39.7769 701.616 39.4045 702.769 39.3369C703.025 39.3219 703.295 39.3219 703.577 39.3359ZM1894.57 14.4795C1895.35 16.4773 1896.23 18.8693 1896.93 21.083C1888.43 29.723 1881.48 37.4176 1873.66 46.7822C1868.44 53.0322 1860.62 62.6238 1854.58 67.7393C1846.55 77.2236 1813.8 111.804 1799.14 115.577C1798.9 115.641 1798.65 115.695 1798.42 115.741C1797.59 115.901 1796.83 115.952 1796.15 115.881C1793.87 112.612 1796.54 108.896 1798.39 105.703C1801.17 100.694 1802 98.0496 1803.08 92.5889C1802.49 84.5899 1800.83 83.1784 1796.76 75.9512C1797.54 75.5276 1797.84 75.4565 1798.67 75.1455L1798.64 70.8379C1794.58 70.7891 1791.98 70.3393 1788.46 68.2754C1783.31 66.8949 1763.49 60.9815 1759.7 61.127C1758.72 61.3953 1757.99 61.6473 1756.97 61.7598L1757.27 62.1504C1758.74 64.0108 1759.74 64.512 1761.89 65.8945C1756.88 66.8152 1747.86 68.0388 1743.71 70.5459L1742.65 72.1553C1743.37 73.1704 1743.69 73.454 1744.43 73.9004L1745.33 74.4346L1745.8 74.8115L1744.94 75.3867L1744.62 75.874C1744.45 76.1292 1744.27 76.3914 1744.08 76.6592C1743.9 76.9272 1743.7 77.2015 1743.49 77.4805C1742.66 78.5959 1741.7 79.7917 1740.72 81.0137C1738.64 83.6107 1736.46 86.3262 1735.19 88.6367C1735.04 88.9084 1734.9 89.1749 1734.78 89.4346C1734.71 89.5643 1734.66 89.6929 1734.6 89.8193C1732.81 94.0106 1731.42 98.3834 1730.37 102.863C1730.3 103.183 1730.22 103.504 1730.15 103.824C1726.65 119.556 1727.36 136.54 1730.39 151.615C1735.46 176.827 1748.99 199.433 1768.55 215.8C1769.24 216.384 1769.95 216.961 1770.67 217.529C1772.81 219.235 1775.02 220.867 1777.29 222.422C1779.5 223.16 1781.23 223.714 1782.92 225.394L1783.19 226.06C1786.66 228.192 1790.27 228.964 1794.21 229.746C1797.41 228.502 1800.51 226.791 1803.6 225.279C1804.94 224.494 1805.16 224.142 1805.97 222.791C1807.07 221.515 1807.9 220.387 1808.59 218.848C1806.7 217.239 1801.39 217.019 1798.86 216.522C1792.35 215.241 1785.81 213.327 1779.82 210.451C1777.63 209.404 1774.95 208.135 1774.11 205.708L1776.14 205.395C1776.43 204.718 1776.77 204.205 1777.2 203.615L1778.78 203.741C1782.44 204.007 1786.08 204.083 1789.77 204.124C1797.69 203.122 1805.99 202.96 1813.6 200.42C1837.73 192.37 1852.85 175.618 1880.59 173.63C1884.56 173.344 1893.23 171.882 1896.4 174.633C1897.4 176.611 1897.62 177.592 1897.31 179.815C1896.24 181.447 1895.93 181.769 1894.2 182.669C1891.07 184.62 1885.67 187.118 1883.29 189.778C1879.59 199.229 1875.81 208.324 1873.86 217.646C1873.74 218.21 1873.63 218.776 1873.52 219.343C1873.26 220.759 1873.05 222.183 1872.88 223.613C1872.82 224.186 1872.76 224.76 1872.71 225.335C1872.62 226.485 1872.55 227.641 1872.53 228.804C1872.51 229.385 1872.51 229.968 1872.52 230.553C1872.53 231.722 1872.59 232.899 1872.68 234.084C1872.73 234.676 1872.79 235.271 1872.86 235.868C1873.21 238.852 1873.85 241.892 1874.81 245.003C1875.33 247.561 1876.06 250.166 1875.72 252.785C1875.13 252.896 1874.36 253.16 1873.78 253.013C1860.85 251.361 1847.41 259.106 1837.58 266.699C1835.08 268.634 1832.7 270.757 1830.35 272.872L1828.08 276.878L1829.06 278.247L1829.13 278.224L1828.53 276.646L1828.85 277.001C1829.18 277.384 1829.55 277.804 1829.99 277.835L1829.21 278.476L1830 277.979L1828.59 279.591C1827.19 281.211 1825.81 282.858 1824.47 284.533C1825.28 286.625 1826.86 290.488 1826.06 292.516C1825.15 292.869 1824.25 293.063 1823.27 293.019C1811.87 292.496 1800.81 284.084 1791.26 278.624C1781.87 273.257 1772.13 268.5 1762.88 262.869C1739.6 248.684 1719.4 230.98 1700.73 211.222L1696.91 211.695L1696.26 212.891C1696.55 215.224 1697.17 216.769 1698.38 218.792L1698.77 219.443C1694.42 214.848 1690.2 210.276 1686.92 204.851L1686.61 204.323C1685.63 203.08 1684.66 201.84 1683.69 200.596C1681.75 198.108 1679.84 195.604 1678.03 193.026C1677.8 192.704 1677.58 192.38 1677.35 192.056C1676.68 191.082 1676.03 190.096 1675.39 189.097L1672.48 183.245C1672.42 183.164 1672.34 183.088 1672.29 183.002C1670.11 179.654 1668.14 176.118 1666.42 172.443C1666.13 171.831 1665.85 171.214 1665.57 170.595C1665.16 169.665 1664.76 168.727 1664.38 167.781C1664.13 167.151 1663.88 166.517 1663.64 165.881C1660.75 158.241 1658.84 150.162 1658.05 142.037C1657.99 141.36 1657.93 140.683 1657.88 140.006C1657.83 139.328 1657.79 138.65 1657.75 137.973C1657.72 137.296 1657.69 136.618 1657.67 135.941C1657.66 135.603 1657.66 135.265 1657.65 134.927C1657.58 130.192 1657.9 125.48 1658.63 120.87C1658.38 114.769 1660.66 106.432 1662.63 100.062C1662.91 99.1516 1663.19 98.2813 1663.45 97.4639L1663.6 96.8799C1666.98 84.4987 1681.03 65.1771 1691.6 57.8916L1684.94 52.1172C1680.7 48.3198 1675.91 45.1864 1670.72 42.8232L1671.16 41.665C1677.49 38.217 1767.19 36.8006 1781.59 37.0547C1808.01 37.5208 1824.5 37.7296 1851.44 33.0215L1851.67 33.042L1852.28 32.874C1853.07 32.7357 1853.86 32.5949 1854.65 32.4482C1854.54 32.4032 1854.43 32.3599 1854.32 32.3154L1857.09 31.5527L1857.41 31.5977L1863.11 30.0342C1875.65 26.5427 1883.79 23.6625 1894.57 14.4795ZM670.929 62.248C675.731 59.9957 678.662 57.9272 683.504 59.0264L683.979 59.1426C683.348 62.5349 677.543 65.5241 675.046 68.5176C669.803 74.1108 664.846 82.3513 662.266 85.0557L661.943 85.541C662.195 85.807 662.42 86.2755 662.621 86.916C662.701 87.1724 662.778 87.4569 662.851 87.7666C664.928 96.591 664.037 126.269 664.104 132.475C662.821 145.909 665.438 163.92 664.163 176.254C664.448 183.544 665.873 198.221 665.761 204.264L667.764 214.288C669.556 216.875 671.948 219.74 672.323 222.78C670.306 226.856 663.826 224.95 658.786 226.742C657.519 227.538 654.923 229.288 653.648 229.756C651.638 236.008 645.061 240.495 639.871 244.984L629.948 252.79C627.308 255.285 625.358 256.987 622.501 259.224L609.406 269.857C606.361 274.515 601.966 281.671 598.651 285.862C593.574 283.195 590.461 281.566 586.419 277.234C581.409 273.321 576.803 270.503 572.019 266.104C563.191 261.704 526.192 241.37 521.101 235.445C517.098 233.066 509.276 228.184 510.884 223.085C515.668 220.088 518.58 223.794 522.311 223.084L522.675 223.001C523.352 220.084 524.029 217.252 524.544 214.298L524.626 213.341C525.42 203.117 524.558 182.595 524.316 172.417L523.471 114.653C523.382 108.942 521.949 94.0509 523.462 89.5332C519.042 84.6645 514.641 79.7091 509.222 75.9199C507.427 74.665 506.06 74.2862 505.206 72.2842C505.794 71.3965 506.807 69.5389 507.915 69.4824C532.231 68.2423 556.824 68.4096 581.161 68.6562C582.316 68.6676 584.739 70.4552 585.549 71.127C583.681 74.0161 570.286 83.6761 566.911 85.9346L567.624 86.7246L569.259 86.917C569.274 86.9659 569.289 87.0192 569.303 87.0762C569.488 87.8203 569.621 89.24 569.716 91.0635C569.76 91.905 569.795 92.8331 569.824 93.8203C570.036 101.061 569.881 111.504 569.896 114.662L570.586 164.872C570.607 166.792 570.616 168.784 570.624 170.826C570.635 173.89 570.641 177.069 570.668 180.301C570.717 186.225 570.839 192.324 571.198 198.203C571.296 199.806 571.412 201.394 571.549 202.956C571.731 205.039 571.951 207.08 572.217 209.058C572.416 210.541 572.641 211.989 572.895 213.395C572.979 213.863 573.067 214.327 573.158 214.786C574.201 217.651 574.877 219.591 576.526 222.204C578.22 224.894 582.595 227.739 584.89 230.453C585.081 230.679 585.258 230.905 585.417 231.129C585.732 231.571 585.978 232.01 586.138 232.442H586.143L592.513 234.19C592.877 233.971 593.3 233.814 593.806 233.749C603.983 232.437 611.258 228.576 618.136 220.475C619.846 217.423 621.181 215.405 621.834 211.929L621.971 209.768C623.317 187.182 622.486 156.913 622.486 134.234C622.276 119.689 622.163 105.141 622.148 90.5947L617.993 84.8506C614.251 81.1449 613.771 80.7193 609.249 78.0596C606.999 77.4306 605.169 77.1584 603.451 75.6455L604.044 74.4121C604.316 74.1991 604.616 74.0024 604.94 73.8213C605.103 73.7307 605.271 73.6436 605.445 73.5605C610.497 71.1505 620.386 71.8232 625.613 71.5508C630.161 71.3136 634.537 70.8898 638.814 70.2861C639.765 70.1519 640.711 70.0083 641.653 69.8564C649.187 68.6418 656.464 66.8638 663.898 64.5605C665.293 64.1286 666.693 63.6785 668.101 63.21C669.039 62.8976 669.982 62.5765 670.929 62.248ZM499.821 51.1084C500.58 54.1421 499.335 61.7363 499.108 65.2676C498.247 78.6794 495.246 108.101 488.635 119.118C487.934 120.27 487.175 121.386 486.362 122.463C483.823 127.186 476.288 136.373 471.217 138.31C470.361 138.728 470.578 138.564 469.477 138.513C468.87 137.936 468.135 137.237 467.272 136.416C466.322 128.383 471.869 116.84 467.551 108.666C463.901 101.76 454.218 96.7348 447.035 94.9863C437.25 92.6044 436.559 90.8874 428.024 95.6445C423.946 100.408 420.309 105.77 415.461 110.145C414.167 111.313 412.434 115.096 411.315 116.012C399.032 144.526 398.705 162.711 405.305 192.092C411.418 208.575 416.288 212.726 428.929 224.357C427.597 224.603 427.333 224.578 426.023 224.573C426.745 225.862 427.946 226.815 429.183 227.731L430.416 228.647C433.763 229.606 437.118 230.104 440.448 230.207C441.473 230.239 442.495 230.233 443.515 230.191C443.769 230.181 444.024 230.169 444.278 230.154C444.787 230.125 445.295 230.087 445.802 230.04C456.952 229.011 467.622 223.853 476.569 217.088C478.225 215.107 482.761 213.042 484.949 210.455C486.251 208.916 487.45 207.397 488.558 205.887C489.112 205.132 489.643 204.379 490.153 203.627C496.782 193.852 499.807 184.232 502.395 171.841L502.962 170.326C504.457 170.585 504.419 171.652 504.761 171.634C507.587 171.478 506.265 170.759 508.283 172.487C508.713 175.16 508.754 177.326 508.926 179.835L509.009 180.934C508.71 188.323 508.085 195.066 506.609 201.413C506.496 201.901 506.378 202.388 506.254 202.871C506.192 203.113 506.129 203.354 506.064 203.595C505.935 204.076 505.8 204.556 505.66 205.033C504.889 207.658 503.948 210.222 502.797 212.742C502.588 213.2 502.371 213.657 502.147 214.112C499.913 218.667 496.962 223.093 493.054 227.502C490.142 233.42 485.246 237.983 480.683 242.619L479.775 243.548L479.41 244.027C471.65 254.054 458.319 261.955 448.362 269.706C442.547 274.233 437.623 278.608 432.168 283.576C426.959 281.592 425.157 281.469 422.405 276.544L422.157 276.12C416.656 267.121 392.82 252.242 384.98 245.765C376.536 238.728 369.117 230.545 362.939 221.454C360.534 217.868 356.591 211.753 355.485 207.729C343.941 188.546 345.001 166.582 349.646 145.859C356.165 118.828 371.445 104.736 391.744 88.1826L379.51 80.0742C377.824 79.2923 376.154 78.4752 374.501 77.625L374.744 76.7471C377.022 75.3036 385.16 74.0399 395.279 72.9629C397.119 72.7671 399.024 72.5779 400.972 72.3945C419.474 70.6519 441.783 69.4703 447.905 68.8857C453.402 68.3605 462.332 68.8254 470.5 68.2949C471.36 68.2391 472.211 68.172 473.049 68.0918C474.515 67.9514 475.941 67.7706 477.299 67.5361C477.881 67.4356 478.451 67.3252 479.007 67.2041C479.747 67.0427 480.462 66.8621 481.146 66.6602C481.489 66.5591 481.824 66.4529 482.15 66.3408C482.64 66.1728 483.111 65.9913 483.562 65.7969C483.862 65.6673 484.153 65.5317 484.435 65.3896C484.575 65.3187 484.713 65.246 484.849 65.1719L485.606 64.5488C489.347 61.3893 492.376 57.5522 495.21 53.5908L495.684 51.999L496.685 51.9219L497.031 51.8857C498.465 51.7246 498.541 51.7149 499.821 51.1084ZM1827.78 278.678L1829.05 278.251L1827.99 277.097L1827.78 278.678ZM1645.23 29.1826C1648.91 27.0084 1655.58 21.5997 1659.28 22.5439C1660.8 25.7717 1656.82 34.2164 1654.67 35.5742C1654.53 35.8256 1654.34 36.156 1654.12 36.543C1653.47 37.7042 1652.54 39.3822 1651.62 41.0166C1651 42.1065 1650.39 43.1775 1649.87 44.0625C1649.61 44.5047 1649.37 44.9007 1649.16 45.2295C1648.96 45.558 1648.78 45.8203 1648.65 45.9941C1648.49 46.3386 1648.3 46.7143 1648.09 47.1172C1647.66 47.923 1647.12 48.8411 1646.48 49.8516C1645.68 51.1147 1644.74 52.523 1643.66 54.0381C1643.23 54.6443 1642.78 55.2681 1642.32 55.9062C1638.57 61.0105 1633.63 67.0583 1628.3 72.8145C1627.63 73.5339 1626.96 74.2491 1626.28 74.957C1624.93 76.3727 1623.56 77.7608 1622.18 79.1016C1621.49 79.7722 1620.8 80.4315 1620.11 81.0762C1618.39 82.6875 1616.66 84.2102 1614.97 85.6064C1614.29 86.1648 1613.61 86.7032 1612.94 87.2188C1610.77 88.8946 1608.65 90.3322 1606.65 91.4473C1606.19 91.7046 1605.73 91.945 1605.28 92.167C1601.84 93.8691 1598.79 94.5043 1596.44 93.6143C1596.34 93.5756 1596.24 93.5337 1596.14 93.4893C1596.15 93.3422 1596.17 93.1945 1596.2 93.0469C1596.28 92.4566 1596.42 91.8619 1596.59 91.2656C1596.67 90.9674 1596.76 90.6682 1596.86 90.3691C1598.09 86.6303 1600.33 82.8462 1600.34 79.4707C1600.35 74.9092 1598 72.4147 1597.24 69.0273C1597.17 68.7328 1597.12 68.4311 1597.08 68.1211C1596.94 67.0362 1596.98 65.8444 1597.31 64.4629C1596.51 64.2938 1595.7 64.1317 1594.88 63.9775C1594.06 63.8234 1593.23 63.6766 1592.4 63.5391C1591.56 63.4015 1590.72 63.2727 1589.87 63.1533C1588.17 62.9146 1586.45 62.7135 1584.71 62.5576C1580.37 62.1679 1575.95 62.0579 1571.61 62.3311C1570.31 62.413 1569.02 62.5298 1567.74 62.6836C1564.12 63.1193 1560.59 63.854 1557.28 64.9521L1556.69 65.1504C1558.31 65.7666 1558.85 65.9809 1560.55 66.292C1561.58 70.1162 1561.39 100.088 1561.49 106.206C1570.94 102.085 1595.57 101.578 1604.43 105.627L1603.18 106.634C1603.34 106.76 1617.53 112.222 1617.77 112.188L1615.52 109.241C1615.64 109.264 1615.77 109.303 1615.91 109.357C1616.06 109.411 1616.21 109.48 1616.37 109.563C1616.45 109.605 1616.54 109.651 1616.62 109.699C1616.8 109.796 1616.98 109.907 1617.17 110.03C1622.56 113.548 1634.49 127.424 1629.5 130.6C1627.34 130.302 1625.55 129.067 1623.78 127.579C1623.02 126.942 1622.27 126.257 1621.5 125.581C1620.72 124.905 1619.93 124.236 1619.09 123.629C1618.81 123.427 1618.53 123.232 1618.24 123.045C1617.66 122.672 1617.05 122.333 1616.42 122.047C1607.82 118.175 1592.87 119.428 1583.86 121.307C1576.19 127.967 1561.07 128.143 1561.13 139.594C1562.15 139.588 1562.7 139.579 1563.74 139.462L1563.39 140.397C1563.07 141.254 1562.8 141.92 1562.16 142.812C1560.89 155.064 1559.5 179.069 1563.67 190.598C1565.26 195.027 1568.37 199.361 1570.93 203.348L1578.55 207.357L1580.31 207.177C1585.8 206.406 1592.51 206.1 1596.95 202.205C1598.41 200.931 1598.6 200.279 1598.74 198.46C1597.54 196.569 1597.33 196.748 1595.12 196.241C1589.78 196.168 1582.97 195.517 1577.96 193.674C1577.51 193.508 1577.01 193.319 1576.5 193.105C1575.48 192.678 1574.38 192.15 1573.42 191.503C1573.1 191.287 1572.79 191.058 1572.51 190.815C1572.01 190.39 1571.58 189.922 1571.25 189.408C1571.16 189.261 1571.07 189.11 1571 188.955C1570.96 188.878 1570.92 188.8 1570.89 188.721C1570.7 188.248 1570.68 187.909 1570.75 187.596C1570.77 187.506 1570.8 187.419 1570.84 187.331C1570.96 187.022 1571.17 186.705 1571.37 186.27C1573.64 185.602 1574.48 186.136 1576.7 186.815C1577.82 186.977 1578.95 187.116 1580.09 187.185C1600.65 188.408 1632.87 169.253 1647.92 156.106C1650.52 153.101 1652.71 151.761 1656.48 150.46L1657.01 151.141C1657.2 151.657 1657.74 152.661 1657.76 153.168C1657.9 156.178 1654.8 161.722 1653.68 164.538C1649.59 174.867 1646.7 186.894 1647.35 198.363C1647.38 198.885 1647.41 199.405 1647.46 199.924C1647.52 200.702 1647.61 201.477 1647.71 202.248C1647.78 202.762 1647.85 203.275 1647.94 203.786C1648.1 204.807 1648.3 205.821 1648.53 206.825C1648.83 208.081 1649.17 209.323 1649.57 210.546C1649.65 210.79 1649.74 211.034 1649.82 211.277C1649.99 211.764 1650.17 212.247 1650.36 212.728C1650.45 212.968 1650.55 213.208 1650.65 213.446C1651.04 215.931 1651.5 218.103 1650.78 220.574C1650 221.537 1649.5 221.427 1648.31 221.659C1645.33 220.67 1642.82 219.005 1640.19 217.329C1640.08 218.302 1639.99 217.807 1640.45 218.611C1641.19 219.898 1641.54 221.503 1641.96 222.921C1638.69 225.507 1632.3 226.908 1628.31 228.394C1616.4 232.829 1592.66 242.132 1587.07 253.877L1585.42 254.926C1584.06 254.387 1582.35 252.761 1581.8 251.364C1581.62 250.912 1581.56 250.412 1581.53 249.932L1580.39 246.672L1579.04 246.987L1578.95 250.193C1577.69 250.025 1576.36 246.816 1575.75 245.631C1572.88 240.081 1567.14 235.369 1561.46 232.731C1561.35 232.683 1561.25 232.637 1561.14 232.59L1561.22 232.141L1565.11 232.771L1565.53 231.876L1563.43 229.107C1553.59 223.926 1543.35 219.571 1533.37 214.678L1531.37 213.691L1530.13 213.277C1522.47 210.645 1493.91 199.917 1492.51 197.625L1493.86 195.739C1495.88 192.815 1499.42 190.932 1502.19 188.743C1509.11 183.257 1509.76 178.79 1510.7 170.446C1512.37 148.068 1509.99 119.551 1509.48 96.9229C1509.2 84.5701 1508.06 70.1053 1509.59 57.8252C1503.66 54.7948 1501 52.7794 1495.63 48.7578C1492.79 46.7695 1486.47 42.5923 1484.55 40.0859C1486.1 38.2807 1490.19 37.7509 1492.5 37.6953C1533.45 36.6996 1574.62 40.994 1615.52 38.4336C1624.42 37.8765 1637.21 32.6045 1645.23 29.1826ZM738.271 80.5293C738.079 80.645 737.896 80.7481 737.722 80.8398C737.46 80.9775 737.217 81.0892 736.99 81.1807C736.839 81.2416 736.695 81.2939 736.558 81.3379C735.183 81.7772 734.443 81.436 733.513 81.7178C733.42 81.7459 733.325 81.7804 733.228 81.8223C733.178 81.8434 733.129 81.8665 733.078 81.8916C733.028 81.9165 732.977 81.9434 732.925 81.9727C732.873 82.002 732.819 82.0334 732.766 82.0674L734.356 82.9551L734.521 84.1846C736.951 99.5254 735.998 133.478 735.586 150.208L735.812 151.094C736.299 151.079 736.786 151.035 737.266 150.96C738.518 150.772 743.692 148.746 745.096 148.135C759.548 141.823 765.826 137.075 775.193 124.788C775.966 123.407 777.653 123.271 777.976 120.375C777.571 118.202 777.691 111.506 777.578 108.89C777.532 108.62 777.485 108.356 777.436 108.099C777.386 107.841 777.335 107.59 777.283 107.345C777.075 106.363 776.843 105.473 776.583 104.655C776.453 104.247 776.316 103.856 776.172 103.481C774.725 99.7302 772.516 97.5438 768.985 94.4814L766.703 92.5195C766.402 92.3145 766.103 92.1137 765.805 91.918C760.142 88.1963 755.06 86.1197 749.533 84.2354C748.37 83.8386 747.186 83.4499 745.974 83.0566C744.155 82.4669 742.271 81.866 740.288 81.208C739.627 80.9887 738.955 80.763 738.271 80.5293ZM1894.17 13.4805C1893.84 13.0073 1893.52 12.5553 1893.21 12.123L1893.54 11.9336C1893.73 12.3912 1893.95 12.9128 1894.17 13.4805Z" fill="white"/>
</svg>
