<svg width="1031" height="606" viewBox="0 0 1031 606" fill="none" xmlns="http://www.w3.org/2000/svg">
<path fill-rule="evenodd" clip-rule="evenodd" d="M547.006 282.01C546.218 284.723 527.913 300.594 524.573 304.111L522.545 306.38C521.188 307.888 519.821 309.388 518.446 310.881C517.072 312.373 515.688 313.857 514.296 315.333C512.904 316.809 511.503 318.277 510.094 319.736C509.389 320.466 508.682 321.194 507.973 321.92L507.122 325.888C503.855 329.927 500.73 334.178 497.709 338.557C496.954 339.651 496.205 340.754 495.462 341.863C490.262 349.63 485.351 357.727 480.53 365.715C478.464 369.138 476.415 372.542 474.366 375.891C473.683 377.007 473.001 378.117 472.317 379.22C470.547 382.077 465.955 390.05 462.04 396.342C461.257 397.6 460.501 398.791 459.8 399.86C458.398 401.999 457.216 403.652 456.478 404.383C457.305 406.17 458.106 407.966 459.062 409.688C470.12 424.933 479.15 441.464 489.393 457.213C492.074 461.336 495.922 464.639 498.566 468.762C502.49 474.879 505.277 481.741 509.18 487.917C520.498 505.875 538.396 518.692 559.044 523.627L562.658 529.322L549.578 528.542C511.92 525.389 507.307 520.716 474.653 506.051C469.318 503.964 464.041 502.827 458.35 502.335C458.099 502.322 457.893 502.296 457.713 502.255C457.532 502.214 457.377 502.158 457.226 502.087C456.923 501.945 456.639 501.74 456.208 501.465C451.007 482.797 434.673 467.385 429.71 448.896C429.284 447.308 428.742 445.761 428.227 444.201L426.707 443.912C426.205 446.11 425.42 448.529 425.282 450.767C424.933 452.645 424.62 454.511 423.998 456.323C422.878 461.748 420.045 466.86 417.056 471.723C416.202 473.112 415.335 474.481 414.491 475.831C412.804 478.531 411.211 481.156 410.001 483.717C409.85 484.037 409.705 484.356 409.566 484.674C409.081 485.788 408.676 486.889 408.376 487.98C408.29 488.292 408.213 488.602 408.145 488.912C408.11 489.067 408.079 489.222 408.05 489.377C407.452 492.517 408.076 496.418 408.312 499.612L407.645 499.792L405.581 497.148L405.078 500.105L403.752 499.92L402.577 500.312C395.504 504.645 387.578 507.666 380.19 511.451C368.314 517.537 353.838 526.538 341.748 530.83C338.414 533.629 333.773 535.694 329.539 536.517L326.388 534.779C325.725 534.21 325.736 533.892 325.458 533.086C325.896 532.008 326.667 531.006 327.598 530.095C327.908 529.791 328.237 529.497 328.576 529.214C329.934 528.081 331.474 527.118 332.783 526.355C344.386 515.367 356.256 503.707 366.086 491.101C382.629 469.884 395.801 446.039 411.338 424.06L407.56 419.572C404.187 415.627 400.324 408.171 397.234 403.773C387.881 390.465 376.858 369.081 365.697 352.188C365.201 351.437 364.705 350.695 364.209 349.963C360.238 344.107 356.257 338.89 352.337 334.876L351.603 334.138C350.262 330.109 351.704 325.843 352.021 321.854C351.672 322.157 351.354 322.455 351.063 322.748C350.773 323.041 350.51 323.328 350.271 323.611C346.936 327.571 348.421 330.566 346.063 332.854C333.284 345.256 297.534 377.812 280.108 377.402C279.12 373.213 286.722 363.325 289.027 358.763C288.359 354.398 286.686 348.221 286.688 344.492L284.032 344.693C274.417 346.11 255.236 341.797 243.333 344.074C241.613 346.651 244.203 346.72 242.114 347.245L240.561 346.55C239.023 348.038 239.504 347.448 238.904 349.749L240.957 350.35C243.124 354.857 241.117 382.665 242.248 391.116C242.266 391.25 242.285 391.38 242.305 391.504C242.492 391.42 242.681 391.337 242.873 391.256C246.524 389.709 251.076 388.613 255.986 387.961C256.503 387.892 257.024 387.828 257.548 387.77C268.554 386.533 281.03 387.46 289.104 390.472C298.946 394.142 315.085 399.074 319.69 409.151C320.473 410.864 321.296 413.697 320.659 415.515C320.306 415.616 319.964 415.677 319.63 415.703C319.407 415.72 319.189 415.722 318.973 415.71C318.757 415.698 318.544 415.672 318.332 415.634C318.12 415.596 317.91 415.546 317.701 415.485C316.969 415.272 316.247 414.93 315.491 414.529C311.593 412.464 308.723 408.68 304.797 406.688C304.673 406.626 304.547 406.564 304.419 406.505C304.163 406.386 303.897 406.273 303.623 406.166C302.799 405.844 301.894 405.574 300.925 405.351C300.602 405.276 300.272 405.208 299.936 405.144C295.392 404.279 289.658 404.332 284.208 404.854C283.401 404.932 282.6 405.02 281.81 405.116C278.649 405.503 275.666 406.031 273.166 406.607C272.541 406.751 271.947 406.898 271.388 407.047C271.108 407.121 270.837 407.196 270.575 407.271C268.179 407.956 265.463 408.819 262.659 409.87C261.958 410.133 261.252 410.408 260.544 410.694C259.482 411.124 258.415 411.58 257.356 412.063C257.004 412.225 256.651 412.388 256.301 412.556C254.548 413.392 252.829 414.304 251.201 415.294C250.876 415.492 250.553 415.693 250.235 415.897C249.281 416.511 248.364 417.152 247.495 417.823C247.206 418.047 246.922 418.274 246.644 418.504C244.419 420.344 242.571 422.391 241.333 424.654C241.099 425.074 240.87 425.497 240.648 425.923C240.427 426.349 240.211 426.777 240.001 427.209C239.687 427.857 239.386 428.511 239.1 429.172C239.004 429.392 238.911 429.613 238.818 429.835L242.395 427.805C242.451 427.857 242.504 427.906 242.553 427.953C242.894 428.285 243.041 428.537 243.058 429.115C243.157 432.536 241.262 437.332 240.953 441.01L240.629 442.11C240.303 443.207 239.957 444.289 239.438 445.319C240.316 448.89 240.078 455.524 240.057 461.351C240.053 462.322 240.056 463.27 240.07 464.179C240.124 467.509 240.342 470.298 241.028 471.66C242.252 482.736 242.685 498.683 252.146 506.149C254.695 508.162 257.598 509.086 260.675 509.163C260.931 509.169 261.189 509.17 261.447 509.165C262.223 509.149 263.009 509.082 263.803 508.967C268.268 508.319 272.664 506.493 276.776 504.138C277.018 503.999 277.258 503.859 277.498 503.717C279.657 502.438 281.733 501.022 283.693 499.564C283.911 499.402 284.128 499.24 284.343 499.077C285.202 498.426 286.039 497.77 286.849 497.115C286.349 496.228 286.208 496.34 285.212 496.058C278.787 495.864 272.2 496.307 265.823 495.398C261.899 494.84 256.178 493.614 253.632 490.28L254.092 489.271C254.343 489.204 254.594 489.148 254.844 489.098L254.806 489.084C258.702 488.428 265.399 487.296 269.135 486.653L268.16 486.556C279.484 485.921 291.066 479.234 301.104 474.528C306.054 469.327 314.223 465.409 320.265 461.32C326.451 457.134 332.459 452.654 338.469 448.217L339.337 447.125C343.706 441.688 348.417 436.593 351.87 430.504L352.839 430.583L354.113 432.344L356.2 430.904C357.479 433.917 354.781 439.049 353.592 441.996C350.962 448.512 347.751 455.09 345.74 461.812C343 470.977 334.912 505.949 331.315 511.661C329.233 511.957 328.251 511.916 326.596 513.3C326.546 513.385 326.492 513.471 326.433 513.557C325.725 514.587 324.326 515.665 322.482 516.759C322.175 516.941 321.855 517.124 321.524 517.307C321.359 517.398 321.191 517.49 321.021 517.581C320.337 517.947 319.61 518.314 318.85 518.681C317.709 519.23 316.494 519.78 315.233 520.323C314.393 520.686 313.532 521.045 312.661 521.401C305.255 524.43 297.062 527.2 293.664 528.951C288.606 531.557 283.6 534.436 278.638 537.461C277.645 538.066 276.654 538.676 275.665 539.292C273.687 540.524 271.716 541.776 269.751 543.039C267.786 544.302 265.828 545.577 263.876 546.855C258.019 550.692 252.215 554.563 246.452 558.255C243.429 560.192 240.393 562.107 237.347 564.009C232.27 567.178 227.166 570.307 222.058 573.429C215.928 577.175 209.79 580.909 203.681 584.688C202.662 585.317 201.645 585.949 200.629 586.581C199.613 587.213 198.597 587.847 197.583 588.482C197.186 588.731 196.756 589.007 196.297 589.306C191.481 592.442 183.486 598.114 177.042 601.806C176.735 601.981 176.431 602.152 176.132 602.318C173.737 603.649 171.601 604.661 169.983 605.104L169.592 604.184C167.919 603.849 166.6 603.626 165.171 602.621C165.054 600.435 167.27 598.588 168.656 596.894C169.573 595.13 170.82 593.494 171.933 591.793C172.025 591.651 172.117 591.509 172.207 591.366C172.298 591.223 172.388 591.081 172.476 590.937C172.651 590.648 172.821 590.357 172.983 590.062C173.676 588.804 174.363 587.532 175.042 586.249C175.721 584.965 176.392 583.67 177.048 582.363C178.032 580.403 178.985 578.418 179.893 576.412C180.195 575.744 180.492 575.073 180.783 574.399C181.803 572.043 182.753 569.658 183.607 567.252C183.851 566.565 184.088 565.875 184.315 565.185C184.543 564.494 184.762 563.801 184.973 563.107C185.183 562.413 185.384 561.717 185.576 561.02C185.768 560.323 185.951 559.624 186.123 558.925C186.209 558.575 186.293 558.225 186.374 557.874L186.486 557.452C187.592 553.087 186.909 548.395 186.2 544C184.042 530.636 175.232 524 165.031 516.704C167.991 516.16 170.91 515.263 173.813 514.474C173.651 513.621 173.497 513.43 172.99 512.762L169.248 512.397L169.027 511.7C172.19 510.019 176.205 508.465 178.7 505.876C180.924 503.569 180.71 501.246 180.676 498.239C177.047 482.01 180.463 463.166 180.605 446.449C183.194 433.626 181.426 419.337 182.835 406.216C182.141 399.919 183.376 383.526 183.759 376.393C183.736 367.525 183.429 354.54 182.378 345.727C181.179 344.518 180.195 344.181 178.84 343.853L177.339 343.495L174.611 342.337C162.08 336.996 152.166 332.497 138.908 327.296L136.014 326.17C133.15 325.309 130.314 324.361 127.51 323.326L127.224 322.431C131.871 318.413 165.719 319.058 173.43 319.176C200.887 317.967 230.327 318.393 257.354 316.985C273.755 315.587 294.451 317.103 311.247 315.564C316.106 315.119 325.035 312.888 330.118 311.719L333.999 310.489C343.371 307.526 354.709 303.885 362.668 299.092C365.412 297.439 366.404 291.455 370.848 291.973C370.689 293.168 370.528 294.195 370.315 295.383L372.582 294.534C372.446 301.737 363.944 313.991 359.831 319.703C369.703 320.311 408.377 323.057 415.612 321.534L416.995 322.19C416.64 325.894 415.218 327.658 413.93 328.806C413.672 329.035 413.419 329.24 413.182 329.431C412.074 330.321 411.294 330.905 411.816 332.259C416.568 344.567 434.934 367.651 439.153 378.918C439.532 379.419 439.73 380.019 439.888 380.699L442.401 376.373L442.275 376.172C444.4 368.248 453.173 356.526 458.259 349.547C461.731 341.818 468.964 337.721 467.426 328.501L466.813 328.384C466.59 328.083 466.217 327.634 466.131 327.345C463.703 319.138 470.481 318.084 476.359 316.424C492.517 311.859 505.83 302.699 520.837 295.97C523.492 293.192 540.114 284.831 544.179 283.201L547.006 282.01Z" fill="white"/>
<path fill-rule="evenodd" clip-rule="evenodd" d="M703.577 39.3359C711.068 39.7092 727.47 49.9684 731.656 52.2539C742.516 55.2177 776.671 64.3232 784.434 69.7012C800.739 77.7034 842.724 106.282 844.831 125.188L844.557 125.662L844.085 128.18L843.26 128.098C836.206 127.757 830.692 127.653 823.99 127.748L820.996 127.802C816.609 128.68 813.211 129.124 809.349 131.408L808.771 131.744C805.713 133.554 787.613 147.523 783.975 150.934C783.857 151.044 783.755 151.143 783.669 151.23L783.99 151.917C784.55 153.064 784.623 152.99 784.521 154.122C784.503 154.311 784.481 154.533 784.456 154.8C784.768 155.263 785.079 155.731 785.391 156.203C795.045 170.848 804.659 189.993 813.211 205.376C816.563 211.405 824.881 226.156 827.416 232.035C828.67 234.034 833.579 242.637 836.163 247.818C836.486 248.466 836.772 249.061 837.011 249.582C837.409 250.45 837.674 251.116 837.751 251.488C849.488 268.692 854.536 284.74 872.011 299.522C877.165 303.887 883.689 307.399 884.691 312.622C884.724 312.793 884.752 312.966 884.772 313.141C884.783 313.228 884.792 313.317 884.799 313.405L886.231 313.607L891.933 312.044C904.549 308.532 912.707 305.641 923.581 296.332C919.366 290.164 916.703 287.682 911.528 282.349L911.382 282.303C907.472 280.809 851.756 246.169 845.259 242.004C849.106 237.288 855.039 232.817 859.854 228.915C860.566 227.886 860.986 226.083 861.391 224.803L860.956 220.713C860.251 207.439 860.708 189.782 860.431 176.062C860.191 164.137 859.156 142.87 859.884 131.856C859.494 129.59 859.147 120.817 859.088 112.055C859.077 110.412 859.075 108.769 859.086 107.17C859.104 104.504 859.155 101.959 859.245 99.7324C859.281 98.8419 859.324 98.0023 859.374 97.2266C859.523 94.8992 859.733 93.1458 860.019 92.3096L857.086 90.9082C850.201 88.2788 837.601 79.6046 830.251 75.46C827.761 74.3968 825.361 73.7179 824.581 70.9424C826.381 69.4355 826.119 69.8552 828.684 69.3701L829.266 69.2568C835.637 68.1428 852.812 68.609 859.358 68.6504C894.151 68.8798 928.809 71.8357 963.563 72.8291C977.296 73.2212 991.232 69.8433 1004.87 70.5684C1009.34 70.8055 1021.89 74.4536 1025.52 76.9727L1025.62 78.1729C1023.16 80.8622 1013.15 84.0452 1008.33 88.2266C1000.24 95.2428 956.656 139.544 946.613 132.999C946.973 129.52 949.351 124.049 950.116 119.938C949.929 112.51 949.088 111.24 946.688 104.241C946.988 102.56 947.243 101.139 947.453 99.9775C946.655 99.5959 945.78 99.3116 944.912 99.0381L944.049 98.7646C940.183 98.9796 921.381 96.4122 913.433 96.0049L912.698 95.9727C910.666 98.5275 911.318 97.7694 907.644 98.7402L907.868 99.8086L909.474 100.767C909.796 101.106 910.201 101.53 910.688 102.04C910.973 116.538 911.049 131.037 911.416 145.535C911.401 145.885 911.378 146.236 911.363 146.586C920.585 142.275 941.456 142.633 951.105 146.298L951.557 146.475C953.005 146.87 954.425 147.241 955.814 147.623C957.204 148.005 958.562 148.398 959.886 148.838C960.327 148.985 960.764 149.137 961.197 149.296C961.847 149.534 962.488 149.786 963.119 150.058C963.54 150.239 963.957 150.428 964.369 150.628C964.782 150.828 965.189 151.038 965.593 151.259C965.996 151.479 966.395 151.711 966.789 151.955C968.564 153.055 970.245 154.409 971.821 156.139C973.774 158.153 977.487 162.464 980.187 166.847C980.504 167.362 980.807 167.879 981.092 168.393C982.588 171.091 983.573 173.716 983.393 175.744C983.375 175.937 983.347 176.125 983.309 176.307C983.25 176.579 983.167 176.839 983.057 177.084C977.079 177.309 969.354 166.811 963.879 163.166C958.932 163.039 952.821 162.652 947.069 162.955C946.464 162.987 945.862 163.026 945.267 163.074C944.671 163.123 944.081 163.18 943.499 163.247C942.916 163.314 942.341 163.391 941.775 163.479C941.21 163.566 940.654 163.665 940.109 163.775C939.564 163.886 939.03 164.009 938.509 164.146C937.727 164.35 936.974 164.584 936.256 164.852C926.843 168.356 913.944 171.94 911.964 183.312L912.616 183.422L915.541 181.134L916.568 181.505C913.824 186.1 913.576 187.312 913.111 192.602C913.066 201.165 913.328 209.728 913.891 218.273C913.961 219.556 914.307 223.925 914.54 227.382C914.633 228.765 914.708 230.001 914.74 230.836C914.748 231.045 914.754 231.228 914.756 231.383L914.754 231.754L914.894 232.48C916.479 240.255 922.208 256.284 929.146 259.094C933.932 261.031 950.851 256.806 953.101 250.388C949.035 244.83 926.446 245.511 924.766 237.552C928.366 233.987 939.113 237.592 944.341 236.432C972.758 230.116 996.818 209.66 1027.87 212.541C1025.56 212.328 1031.14 215.636 1030.86 215.473C1023.39 221.781 1021.69 217.247 1013.69 228.692L1013.63 229.291L1014.09 232.407C1013.64 235.259 1012.32 238.687 1010.93 242.13C1010.4 243.421 1009.87 244.714 1009.36 245.98C1008.52 248.091 1007.77 250.126 1007.29 251.948C1007.25 252.084 1007.22 252.221 1007.19 252.358C1007.14 252.537 1007.1 252.716 1007.07 252.896C1006.9 253.695 1006.77 254.512 1006.68 255.341C1006.62 255.838 1006.58 256.341 1006.54 256.846C1006.51 257.323 1006.49 257.804 1006.47 258.286C1006.45 258.823 1006.43 259.361 1006.43 259.9C1006.4 262.629 1006.54 265.364 1006.51 267.894C1006.49 269.32 1006.77 272.227 1006.44 274.321C1006.37 274.72 1006.29 275.089 1006.17 275.413C1005.97 275.981 1005.69 276.41 1005.28 276.615C1004.12 277.195 1003.18 277.354 1001.93 277.594L1000.49 278.197C989.954 282.554 971.1 289.605 957.068 297.209C956.4 297.571 955.743 297.934 955.098 298.299C949.294 301.578 944.491 304.94 941.724 308.216L941.523 308.572C940.499 310.35 939.133 312.097 937.648 313.759C937.252 314.202 936.848 314.639 936.439 315.069C935.214 316.359 933.953 317.586 932.769 318.722L930.443 318.58C927.392 313.412 927.592 309.085 926.148 303.399L926.004 302.845C917.386 311.586 910.381 319.338 902.483 328.792C897.263 335.042 889.441 344.633 883.403 349.749C875.37 359.233 842.621 393.814 827.967 397.587C827.72 397.65 827.479 397.705 827.243 397.751C826.418 397.911 825.657 397.962 824.971 397.891C822.691 394.622 825.369 390.906 827.214 387.713C829.996 382.703 830.829 380.06 831.901 374.599C831.316 366.6 829.658 365.188 825.586 357.961C826.366 357.537 826.659 357.466 827.499 357.155L827.461 352.848C823.403 352.799 820.808 352.349 817.283 350.285C812.13 348.905 792.316 342.991 788.528 343.137C787.546 343.405 786.811 343.657 785.791 343.77L786.093 344.16C787.569 346.021 788.567 346.522 790.719 347.904C785.701 348.825 776.686 350.049 772.531 352.556L771.474 354.165C772.194 355.18 772.517 355.464 773.251 355.91L774.151 356.444L774.624 356.821L773.761 357.396L773.446 357.884C773.278 358.139 773.098 358.401 772.909 358.669C772.72 358.937 772.521 359.211 772.313 359.49C771.485 360.606 770.528 361.801 769.549 363.023C767.467 365.621 765.283 368.336 764.01 370.646C763.86 370.918 763.723 371.185 763.6 371.444C763.538 371.574 763.48 371.703 763.426 371.829C761.639 376.02 760.243 380.393 759.194 384.873C759.119 385.193 759.046 385.513 758.975 385.834C755.476 401.566 756.187 418.55 759.219 433.625C764.285 458.837 777.809 481.443 797.37 497.81C798.069 498.394 798.775 498.971 799.489 499.539C801.631 501.244 803.841 502.877 806.116 504.432C808.321 505.169 810.054 505.723 811.741 507.403L812.011 508.069C815.483 510.202 819.099 510.974 823.036 511.756C826.238 510.511 829.336 508.801 832.426 507.289C833.768 506.504 833.986 506.152 834.796 504.801C835.891 503.525 836.723 502.397 837.413 500.857C835.523 499.249 830.214 499.029 827.687 498.532C821.177 497.251 814.636 495.337 808.644 492.461C806.454 491.414 803.777 490.145 802.937 487.718L804.969 487.404C805.254 486.727 805.591 486.215 806.026 485.625L807.6 485.751C811.266 486.017 814.908 486.093 818.596 486.134C826.516 485.131 834.811 484.97 842.424 482.43C866.551 474.38 881.671 457.628 909.413 455.64C913.388 455.354 922.059 453.892 925.224 456.643C926.221 458.621 926.446 459.601 926.139 461.825C925.066 463.457 924.759 463.778 923.026 464.679C919.891 466.63 914.491 469.127 912.113 471.788C908.412 481.239 904.629 490.333 902.682 499.655C902.564 500.22 902.453 500.786 902.349 501.353C902.088 502.769 901.873 504.192 901.709 505.623C901.643 506.196 901.586 506.769 901.537 507.345C901.44 508.495 901.376 509.651 901.352 510.813C901.339 511.395 901.336 511.978 901.343 512.562C901.357 513.732 901.411 514.909 901.508 516.094C901.556 516.686 901.616 517.281 901.687 517.878C902.039 520.862 902.672 523.902 903.639 527.013C904.156 529.571 904.883 532.175 904.546 534.795C903.953 534.906 903.189 535.169 902.604 535.022C889.674 533.371 876.233 541.115 866.408 548.709C863.903 550.644 861.526 552.767 859.171 554.882L856.906 558.888L857.886 560.257L857.956 560.233L857.356 558.656L857.673 559.011C858.004 559.394 858.378 559.814 858.812 559.845L858.038 560.485L858.826 559.989L857.413 561.601C856.01 563.22 854.637 564.868 853.299 566.543C854.109 568.635 855.683 572.498 854.881 574.525C853.974 574.878 853.073 575.073 852.099 575.028C840.691 574.506 829.636 566.094 820.081 560.634C810.691 555.267 800.956 550.51 791.709 544.879C768.429 530.694 748.223 512.99 729.556 493.231L725.731 493.705L725.086 494.9C725.371 497.234 725.994 498.778 727.201 500.802L727.599 501.453C723.247 496.858 719.021 492.286 715.747 486.86L715.434 486.333C714.459 485.09 713.482 483.849 712.514 482.605C710.576 480.118 708.668 477.614 706.854 475.036C706.628 474.714 706.402 474.39 706.179 474.065C705.508 473.092 704.852 472.106 704.214 471.106L701.304 465.255C701.244 465.174 701.169 465.098 701.116 465.012C698.932 461.664 696.968 458.128 695.241 454.453C694.953 453.841 694.672 453.224 694.397 452.604C693.986 451.675 693.589 450.736 693.207 449.791C692.953 449.161 692.705 448.527 692.464 447.891C689.573 440.251 687.667 432.172 686.878 424.047C686.812 423.37 686.753 422.693 686.703 422.016C686.653 421.338 686.611 420.66 686.576 419.982C686.542 419.305 686.516 418.628 686.497 417.951C686.488 417.613 686.481 417.275 686.476 416.937C686.402 412.201 686.721 407.49 687.459 402.88C687.203 396.779 689.485 388.442 691.456 382.071C691.738 381.161 692.013 380.291 692.273 379.474L692.426 378.89C695.802 366.508 709.856 347.187 720.429 339.901L713.769 334.127C709.524 330.33 704.731 327.196 699.549 324.833L699.983 323.675C706.313 320.227 796.012 318.81 810.413 319.064C837.871 319.549 854.604 319.759 883.479 314.458C877.951 312.215 871.876 310.714 866.101 308.343C850.538 301.956 837.368 294.104 824.108 283.932C819.916 281.844 814.876 277.561 809.632 272.752C808.422 271.642 807.201 270.505 805.977 269.359C800.673 264.397 795.314 259.294 790.544 255.722C790.177 255.447 789.814 255.181 789.454 254.925C788.735 254.413 788.03 253.941 787.344 253.514C784.524 251.754 775.876 245.975 774.849 243.167C766.449 223.92 755.409 205.502 745.441 187.038C745.132 186.466 744.83 185.895 744.534 185.325C743.646 183.616 742.808 181.916 741.958 180.221C740.825 177.96 739.669 175.709 738.346 173.454L736.921 174.071C736.973 174.23 737.034 174.389 737.094 174.549C739.156 201.186 738.729 228.088 744.309 254.511C745.516 260.257 749.446 266.358 753.398 270.645C755.986 273.442 760.418 274.988 760.051 279.04C759.522 279.295 758.87 279.454 758.121 279.532C757.907 279.555 757.685 279.57 757.456 279.579C753.907 279.725 748.622 278.36 743.959 276.744C743.357 276.536 742.766 276.324 742.189 276.109C740.75 275.574 739.406 275.029 738.238 274.518C737.771 274.313 737.331 274.114 736.925 273.923C736.316 273.636 735.782 273.367 735.339 273.125L735.086 272.992C733.613 272.182 731.421 270.413 728.862 268.15C728.26 267.618 727.638 267.058 727 266.477C720.302 260.376 711.883 251.925 707.094 248.124C706.559 247.607 705.99 247.131 705.393 246.692C705.094 246.473 704.787 246.263 704.475 246.062C704.006 245.76 703.522 245.478 703.025 245.214C702.694 245.038 702.357 244.87 702.016 244.709C701.503 244.468 700.979 244.244 700.446 244.035C700.091 243.896 699.732 243.763 699.369 243.637C691.027 240.731 680.879 241.106 676.657 238.464C676.474 238.349 676.301 238.228 676.141 238.102L675.841 237.4C675.961 237.004 676.676 236.103 677.722 234.926C678.245 234.337 678.851 233.679 679.507 232.98C682.786 229.487 687.314 224.976 688.974 223.004C689.446 220.966 689.83 219.052 690.198 217.063L690.563 215.043C690.473 206.05 689.626 194.072 688.816 185.139C686.341 168.312 688.853 147.13 686.573 132.126L685.269 130.626C686.386 123.138 688.816 102.987 683.709 97.5674L674.198 91.458C672.196 90.7563 669.256 89.9388 668.379 88.2715C675.069 80.8852 686.394 81.3556 695.536 76.3623C702.369 72.627 706.997 68.3296 713.356 63.9541L711.639 61.5752C710.716 58.442 710.071 56.6754 709.943 53.4199L712.621 52.3867C711.623 48.5504 701.064 46.0095 700.254 40.541C700.743 39.7769 701.616 39.4045 702.769 39.3369C703.025 39.3219 703.295 39.3219 703.577 39.3359ZM856.606 560.688L857.874 560.261L856.816 559.106L856.606 560.688ZM738.271 80.5293C738.079 80.6451 737.896 80.7481 737.722 80.8398C737.46 80.9775 737.217 81.0892 736.99 81.1807C736.839 81.2417 736.695 81.2939 736.558 81.3379C735.182 81.7773 734.443 81.436 733.513 81.7178C733.42 81.7459 733.325 81.7803 733.228 81.8223C733.178 81.8434 733.129 81.8665 733.078 81.8916C733.028 81.9166 732.977 81.9434 732.925 81.9727C732.873 82.002 732.819 82.0334 732.766 82.0674L734.356 82.9551L734.521 84.1846C736.951 99.5252 735.998 133.478 735.586 150.208L735.812 151.094C736.299 151.079 736.786 151.035 737.266 150.96C738.518 150.772 743.693 148.746 745.096 148.135C759.548 141.823 765.826 137.075 775.193 124.788C775.966 123.407 777.653 123.272 777.976 120.375C777.571 118.202 777.691 111.506 777.578 108.89C777.532 108.62 777.485 108.356 777.436 108.099C777.386 107.841 777.335 107.59 777.283 107.345C777.075 106.363 776.843 105.473 776.583 104.655C776.453 104.247 776.316 103.856 776.172 103.481C774.725 99.7301 772.517 97.5439 768.985 94.4814L766.703 92.5195C766.402 92.3144 766.103 92.1138 765.805 91.918C760.142 88.1963 755.06 86.1197 749.533 84.2354C748.37 83.8386 747.186 83.4499 745.974 83.0566C744.155 82.4669 742.271 81.8661 740.288 81.208C739.627 80.9886 738.955 80.763 738.271 80.5293Z" fill="white"/>
<path fill-rule="evenodd" clip-rule="evenodd" d="M674.056 311.192C677.731 309.018 684.406 303.609 688.104 304.554C689.626 307.781 685.644 316.226 683.499 317.584C683.354 317.835 683.167 318.166 682.949 318.553C682.296 319.714 681.365 321.392 680.442 323.026C679.827 324.116 679.216 325.187 678.693 326.072C678.432 326.515 678.193 326.91 677.986 327.239C677.78 327.568 677.607 327.83 677.477 328.004C677.317 328.349 677.129 328.724 676.913 329.127C676.482 329.933 675.942 330.851 675.305 331.861C674.509 333.125 673.562 334.533 672.488 336.048C672.059 336.654 671.609 337.278 671.141 337.916C667.394 343.02 662.454 349.068 657.124 354.824C656.458 355.544 655.785 356.259 655.108 356.967C653.755 358.383 652.383 359.77 651.006 361.111C650.317 361.782 649.627 362.441 648.937 363.086C647.212 364.697 645.488 366.22 643.79 367.616C643.111 368.175 642.436 368.713 641.767 369.229C639.591 370.904 637.476 372.342 635.475 373.457C635.013 373.714 634.557 373.955 634.107 374.177C630.664 375.879 627.617 376.514 625.264 375.624C625.161 375.585 625.061 375.543 624.961 375.499C624.977 375.352 624.997 375.204 625.02 375.057C625.109 374.466 625.244 373.872 625.411 373.275C625.495 372.977 625.587 372.678 625.686 372.379C626.915 368.64 629.155 364.856 629.161 361.48C629.172 356.919 626.823 354.425 626.063 351.037C625.997 350.742 625.944 350.441 625.904 350.131C625.766 349.046 625.807 347.854 626.139 346.473C625.338 346.304 624.526 346.141 623.706 345.987C622.886 345.833 622.058 345.686 621.222 345.549C620.386 345.411 619.542 345.282 618.692 345.163C616.993 344.924 615.27 344.723 613.533 344.567C609.192 344.178 604.77 344.068 600.437 344.341C599.136 344.423 597.844 344.54 596.564 344.693C592.94 345.129 589.417 345.864 586.102 346.962L585.519 347.16C587.138 347.776 587.672 347.991 589.374 348.302C590.401 352.124 590.213 382.097 590.318 388.216C599.761 384.094 624.398 383.588 633.256 387.637L632.004 388.644C632.154 388.766 646.361 394.236 646.591 394.198L644.341 391.251C644.462 391.274 644.594 391.313 644.737 391.367C644.88 391.421 645.033 391.49 645.196 391.573C645.278 391.615 645.361 391.661 645.447 391.709C645.62 391.806 645.801 391.917 645.99 392.04C651.387 395.557 663.311 409.433 658.321 412.609C656.169 412.312 654.371 411.077 652.603 409.589C651.845 408.951 651.093 408.267 650.32 407.591C649.548 406.915 648.756 406.246 647.918 405.639C647.639 405.436 647.354 405.241 647.063 405.055C646.483 404.681 645.878 404.343 645.241 404.057C636.646 400.185 621.699 401.438 612.684 403.316C605.011 409.977 589.891 410.152 589.951 421.604C590.979 421.598 591.519 421.589 592.562 421.472L592.216 422.407C591.899 423.264 591.622 423.93 590.986 424.821C589.711 437.074 588.323 461.078 592.493 472.607C594.086 477.037 597.194 481.371 599.756 485.357L607.374 489.367L609.136 489.187C614.626 488.416 621.338 488.11 625.778 484.215C627.233 482.94 627.421 482.289 627.563 480.47C626.364 478.579 626.153 478.758 623.941 478.251C618.602 478.178 611.799 477.526 606.781 475.684C606.33 475.518 605.836 475.329 605.324 475.115C604.301 474.688 603.209 474.16 602.245 473.513C601.924 473.297 601.617 473.068 601.332 472.825C600.833 472.4 600.401 471.932 600.074 471.418C599.981 471.271 599.896 471.12 599.821 470.965C599.784 470.888 599.748 470.81 599.716 470.73C599.522 470.257 599.5 469.919 599.575 469.605C599.597 469.516 599.626 469.429 599.662 469.341C599.787 469.032 599.99 468.715 600.196 468.279C602.461 467.612 603.302 468.146 605.521 468.825C606.646 468.987 607.771 469.126 608.911 469.194C629.476 470.418 661.697 451.262 676.749 438.116C679.344 435.111 681.534 433.77 685.306 432.47L685.831 433.15C686.026 433.667 686.566 434.67 686.589 435.178C686.724 438.188 683.626 443.732 682.509 446.548C678.415 456.877 675.522 468.904 676.171 480.373C676.2 480.894 676.238 481.415 676.282 481.934C676.349 482.712 676.432 483.487 676.533 484.258C676.601 484.772 676.676 485.285 676.76 485.796C676.927 486.817 677.125 487.831 677.358 488.835C677.65 490.091 677.995 491.332 678.396 492.556C678.477 492.8 678.56 493.044 678.645 493.287C678.814 493.774 678.993 494.257 679.182 494.737C679.276 494.978 679.372 495.217 679.471 495.456C679.868 497.941 680.326 500.113 679.606 502.584C678.826 503.547 678.324 503.437 677.139 503.669C674.154 502.68 671.648 501.015 669.016 499.339C668.903 500.312 668.813 499.817 669.278 500.621C670.013 501.908 670.366 503.512 670.786 504.931C667.516 507.517 661.126 508.917 657.136 510.403C645.226 514.839 621.481 524.141 615.894 535.887L614.243 536.936C612.886 536.397 611.176 534.771 610.629 533.374C610.449 532.922 610.389 532.422 610.352 531.941L609.219 528.682L607.868 528.997L607.778 532.203C606.518 532.036 605.184 528.825 604.576 527.641C601.704 522.091 595.966 517.379 590.288 514.741C590.176 514.693 590.071 514.647 589.966 514.6L590.041 514.15L593.934 514.78L594.354 513.886L592.254 511.117C582.417 505.936 572.171 501.581 562.19 496.688L560.198 495.701L558.958 495.287C551.29 492.655 522.729 481.926 521.334 479.635L522.68 477.749C524.702 474.825 528.248 472.942 531.011 470.753C537.931 465.267 538.584 460.8 539.521 452.456C541.194 430.078 538.816 401.561 538.306 378.933C538.028 366.58 536.889 352.115 538.411 339.835C532.486 336.804 529.824 334.789 524.451 330.768C521.616 328.779 515.292 324.602 513.37 322.096C514.926 320.29 519.01 319.761 521.324 319.705C562.276 318.709 603.444 323.004 644.349 320.443C653.243 319.886 666.038 314.614 674.056 311.192Z" fill="white"/>
<path d="M194.47 1.2373C196.181 0.563274 196.419 0.456704 198.163 0.988281C199.217 3.19092 198.913 4.06891 198.267 6.88184L197.664 9.62598C194.602 23.4238 187.675 53.259 188.369 67.3828C188.394 67.8963 188.431 68.3889 188.477 68.8594C188.546 69.5652 188.638 70.221 188.757 70.8213L189.753 71.0547L190.466 69.0635L190.71 69.0127C191.146 68.9285 191.723 68.8508 192.418 68.7803C192.974 68.7239 193.606 68.672 194.302 68.624C203.703 67.9765 224.853 68.0821 229.758 68.5635C251.929 68.1481 317.928 70.8999 334.538 65.5654C339.473 63.9811 353.41 57.541 357.433 61.46C358.549 62.5478 358.927 64.064 358.831 65.5566C358.623 68.7842 357.04 71.1612 354.732 73.2725C354.163 73.7928 353.615 74.3354 353.047 74.8564L353.025 75.1855C352.735 78.6426 350.322 83.7999 346.735 89.5264C345.347 91.7431 343.783 94.0455 342.099 96.3672C333.956 107.588 322.996 119.268 315.445 123.999C315.185 124.162 314.929 124.318 314.677 124.464C313.921 124.903 313.203 125.264 312.531 125.541C312.307 125.633 312.089 125.716 311.875 125.789C310.168 126.372 308.801 126.329 307.906 125.505C307.992 125.227 308.08 124.947 308.172 124.665C308.446 123.821 308.744 122.962 309.053 122.091C311.938 113.962 315.858 104.805 311.666 97.0596C311.381 96.5372 311.083 96.0215 310.773 95.5127L310.461 95.0059L308.627 94.2471C296.618 93.1847 283.066 91.6154 271.862 95.5215L272.145 95.8438C272.873 96.6933 274.016 98.1668 274.013 99.0137C273.975 109.479 275.964 128.821 273.811 138.497C276.492 137.267 279.181 136.713 282.036 136.014C290.648 133.379 307.108 136.005 315.349 139.729C320.479 147.497 334.473 149.08 332.695 159.353L331.051 161.072C330.334 161.013 329.646 160.817 328.983 160.519C328.763 160.419 328.545 160.308 328.329 160.187C325.744 158.732 323.542 155.809 321.472 153.556C304.437 150.919 292.022 158.555 277.274 166.176C275.307 167.192 273.589 170.411 272.628 172.341C273.931 176.483 272.907 216.174 273.112 224.572C273.521 225.899 274.395 227.977 275.238 230.03C277.698 229.601 280.063 229.187 281.194 228.981C281.192 228.978 281.19 228.974 281.188 228.97C283.886 225.205 291.293 226.274 295.949 225.139C313.721 220.801 323.228 208.237 335.884 195.851C336.948 193.283 336.215 194.107 338.635 192.748C340.162 192.294 340.643 192.161 342.22 191.975C340.859 211.774 337.894 228.711 347.363 246.784C349.23 250.347 352.614 256.085 351.982 259.863L350.402 260.21C347.122 258.428 339.673 254.324 337.985 251.273C337.32 251.441 336.883 251.533 336.57 251.613C335.632 251.856 335.806 252 334.268 253.791L336.006 254.945C334.387 257.06 325.665 257.552 319.443 257.885C317.888 257.968 316.488 258.042 315.396 258.128C315.032 258.157 314.702 258.186 314.411 258.219C305.129 259.255 294.76 262.096 285.635 262.687C266.667 267.573 251.935 270.123 232.75 276.828C227.963 278.501 215.644 283.143 206.55 286.286C204.897 286.858 203.35 287.38 201.975 287.825C199.911 288.494 198.233 288.99 197.159 289.224L196.602 289.307L196.156 287.166C194.956 286.661 194.213 286.145 193.13 285.458C195.623 283.358 200.457 278.864 202.858 277.524C203.693 276.556 207.939 272.277 212.997 267.259C217.255 263.034 222.089 258.286 225.945 254.549C229.724 250.887 232.566 248.194 233.011 247.915L234.865 242.072C233.294 239.154 231.48 238.008 228.614 236.713C226.294 232.149 227.391 219.075 227.59 212.422C227.603 211.978 227.612 211.564 227.616 211.182L227.938 165.513C228.022 158.603 227.961 151.116 227.902 143.521C227.873 139.723 227.845 135.897 227.836 132.104C227.83 129.574 227.833 127.059 227.851 124.574C227.868 122.09 227.899 119.638 227.95 117.233C228.027 113.627 228.148 110.129 228.333 106.799C228.27 102.089 227.941 96.9425 229.232 92.4561L229.363 92.0234C229.116 91.0548 228.863 90.7403 228.395 89.8623L225.195 89.1396C215.138 84.6246 197.592 76.1851 187.772 73.7109C186.916 80.5644 186.077 89.1346 184.796 95.7969C184.533 102.396 181.282 126.973 178.015 131.686L176.587 133.146C174.291 132.038 173.96 133.03 171.866 131.426C168.68 128.395 164.348 111.935 162.27 105.202L161.885 103.992C160.564 99.04 159.489 95.0721 157.831 91.3369C157.636 90.8976 157.433 90.4614 157.221 90.0273C155.839 87.2048 154.06 84.4661 151.512 81.4756C148.81 80.8016 146.466 80.0323 144.155 79.167C143.577 78.9507 143.002 78.7283 142.423 78.5C141.844 78.2716 141.261 78.0372 140.671 77.7969L136.99 76.2842C123.4 77.2094 114.536 83.1815 107.661 94.8252C108.106 94.9765 108.507 95.1923 108.874 95.4629C109.057 95.5982 109.232 95.7479 109.399 95.9092C109.903 96.3933 110.342 96.9883 110.752 97.6611C110.82 97.7732 110.887 97.8877 110.954 98.0039C112.223 100.213 113.257 103.14 115.174 105.698C115.689 106.189 116.669 107.031 116.995 107.586C129.843 117.239 174.356 153.943 191.844 162.211C192.455 162.499 195.205 160.443 196.16 159.744L196.916 160.334L196.862 162.177L198.409 162.971L199.552 161.067L199.848 161.167C202.869 162.312 204.703 166.876 206.344 169.61C218.086 189.179 221.441 214.909 206.545 234.124C205.073 236.7 203.703 238.817 202.262 240.706C202.131 240.878 201.999 241.047 201.866 241.215C199.219 244.577 196.281 247.256 192.007 250.646C172.121 268.23 154.653 278.966 130.245 289.794C128.678 290.489 121.025 293.968 119.766 293.987C107.042 301.363 98.8597 306.707 87.8477 314.321C86.2744 315.409 84.6429 316.543 82.9326 317.736C82.1927 318.478 81.4506 319.216 80.707 319.951C73.6425 326.937 66.474 333.695 60.3389 341.387C59.6929 342.197 59.0583 343.017 58.4365 343.849C55.6395 347.591 53.1011 351.571 50.9424 355.911C50.0844 357.636 48.7398 361.52 47.1602 363.898C47.0166 364.115 46.8709 364.318 46.7236 364.507C46.1344 365.261 45.517 365.772 44.8838 365.864C43.7134 364.895 43.6141 364.643 43.1582 364.603C43.0669 364.595 42.9614 364.595 42.8301 364.6C42.5676 364.61 42.2023 364.638 41.6426 364.651L40.0342 366.615C39.9874 366.468 39.944 366.32 39.9023 366.172C37.2765 356.854 44.5557 346.502 41.0137 340.337C39.3097 335.321 40.1829 303.646 40.2617 296.283C40.1485 279.482 40.3344 263.094 38.3672 246.388C38.1124 244.225 38.5042 240.966 38.9053 238.222L39.2861 235.709C39.4437 232.145 40.1798 227.294 40.623 223.654C40.9538 220.348 41.5194 214.892 42.2207 208.671C42.361 207.427 42.5059 206.152 42.6562 204.857C44.1602 191.914 46.1319 177.021 47.7861 171.267L48.748 170.866L49.1582 171.747C48.2465 174.063 49.5073 190.085 50.0391 193.497L51.375 193.749C51.9289 185.211 52.2876 182.338 54.3789 175.59C54.6776 174.626 55.0117 173.583 55.3867 172.434C55.618 173.1 55.8484 173.767 56.0771 174.435C63.1698 195.127 69.0332 216.221 73.6367 237.606C73.8659 238.306 74.3551 239.443 74.998 240.833C75.4268 241.76 75.9238 242.799 76.458 243.896C79.328 249.791 83.2663 257.354 83.3994 258.094C83.4025 258.111 83.4035 258.125 83.4023 258.135C83.1252 257.984 82.8811 257.851 82.6523 257.731C81.9665 257.372 81.4202 257.116 80.5508 256.75L80.0293 257.62C84.0971 260.978 86.4827 261.4 90.9814 261.985C91.6243 262.069 92.3105 262.156 93.0508 262.256C93.1268 262.247 93.2094 262.24 93.2979 262.233C94.6257 262.134 97.2607 262.228 98.5742 262.147C120.584 260.799 131.855 255.758 146.493 240.245C148.242 237.649 150.466 234.977 151.267 232.014L153.659 228.07C153.68 228.013 153.697 227.949 153.713 227.88C153.745 227.742 153.769 227.582 153.785 227.402C154.017 224.801 152.664 218.148 152.755 215.917C152.953 211.091 152.294 207.854 151.048 205.301C150.935 205.069 150.816 204.843 150.693 204.621C148.237 200.192 143.917 197.752 139.349 191.861C136.676 189.479 133.605 185.736 130.396 182.218C129.862 181.632 129.323 181.052 128.782 180.485C128.061 179.73 127.334 178.999 126.606 178.31C126.424 178.137 126.242 177.968 126.06 177.801C124.966 176.799 123.871 175.901 122.782 175.165C114.782 169.756 105.707 165.84 97.4883 160.438C95.2476 159.566 92.9773 158.552 90.6865 157.461C89.923 157.097 89.1574 156.725 88.3896 156.347C82.6309 153.511 76.7622 150.336 70.9219 147.856C70.143 147.526 69.3644 147.208 68.5869 146.904C65.8663 145.842 63.1558 144.961 60.4697 144.366C59.9459 144.25 58.6816 144.194 57.126 144.173C56.1927 144.16 55.1545 144.16 54.1084 144.167C51.3184 144.186 48.472 144.259 47.4092 144.285C43.7853 144.745 32.7419 146.085 29.5088 145.71L29.7285 144.659C34.6162 140.419 39.1305 135.971 43.7646 131.468C45.2721 129.495 47.2522 126.223 48.6562 124.057C48.8893 123.379 49.1054 122.803 49.3203 122.279C49.965 120.71 50.6016 119.622 51.6719 117.752C51.3096 107.691 50.7017 101.362 49.5234 91.3457C49.1122 87.0444 48.9288 84.0269 46.4023 80.6641L46.1504 80.3379C38.6391 76.6176 12.4492 71.1538 3.08789 67.1377C2.74731 66.9916 2.42909 66.8472 2.13477 66.7051C1.10515 66.2079 0.369382 65.7358 0 65.2959L4.4043 63.4785C4.26495 63.0842 4.2256 62.9318 4.23633 62.7607C4.2417 62.6751 4.25994 62.5848 4.28418 62.457C4.3084 62.3293 4.33857 62.1638 4.36914 61.9287C8.22788 59.5379 13.7437 58.8411 18.2451 58.2285L19.6621 57.9258C26.9945 56.4328 37.8803 55.2568 45.126 54.2861C70.3927 50.7615 95.826 48.5538 121.322 47.6729C133.554 47.3212 146.264 47.9361 158.529 47.5439C159.582 47.5102 160.284 47.0727 160.914 46.3721C161.094 46.1717 161.269 45.95 161.443 45.71C162.055 44.8707 162.673 43.8087 163.576 42.666L164.206 42.041C170.753 35.4277 178.258 24.2915 183.595 16.6562C186.515 12.477 189.12 3.46095 193.131 0L194.47 1.2373Z" fill="white"/>
<path d="M670.929 62.248C675.731 59.9957 678.662 57.9272 683.504 59.0264L683.979 59.1426C683.348 62.535 677.543 65.5239 675.046 68.5176C669.803 74.1108 664.846 82.3513 662.266 85.0557L661.943 85.541C662.195 85.807 662.42 86.2753 662.621 86.916C662.702 87.1725 662.778 87.4568 662.851 87.7666C664.928 96.5905 664.037 126.269 664.104 132.475C662.821 145.909 665.438 163.92 664.163 176.254C664.448 183.544 665.873 198.221 665.761 204.264L667.764 214.288C669.556 216.875 671.948 219.74 672.323 222.78C670.306 226.857 663.826 224.95 658.786 226.742C657.519 227.538 654.923 229.288 653.648 229.756C651.638 236.008 645.061 240.495 639.871 244.984L629.948 252.79C627.308 255.285 625.358 256.987 622.501 259.224L609.406 269.857C606.361 274.515 601.966 281.671 598.651 285.862C593.574 283.195 590.461 281.566 586.419 277.234C581.409 273.321 576.804 270.503 572.019 266.104C563.191 261.704 526.191 241.37 521.101 235.445C517.098 233.066 509.275 228.185 510.884 223.085C515.668 220.088 518.58 223.794 522.311 223.084L522.675 223.001C523.352 220.084 524.029 217.253 524.544 214.298L524.626 213.341C525.42 203.117 524.558 182.595 524.316 172.417L523.471 114.653C523.382 108.942 521.948 94.0504 523.462 89.5332C519.042 84.6644 514.641 79.7091 509.222 75.9199C507.427 74.6649 506.06 74.2865 505.206 72.2842C505.794 71.3965 506.807 69.5389 507.915 69.4824C532.231 68.2423 556.824 68.4096 581.161 68.6562C582.316 68.6676 584.739 70.4552 585.549 71.127C583.681 74.0157 570.286 83.6761 566.911 85.9346L567.624 86.7246L569.259 86.917C569.274 86.966 569.289 87.0191 569.303 87.0762C569.488 87.8202 569.621 89.2396 569.716 91.0635C569.76 91.9051 569.795 92.8329 569.824 93.8203C570.036 101.061 569.881 111.504 569.896 114.662L570.586 164.872C570.607 166.793 570.616 168.784 570.624 170.826C570.635 173.89 570.641 177.069 570.668 180.301C570.717 186.225 570.839 192.324 571.198 198.203C571.296 199.806 571.412 201.393 571.549 202.956C571.731 205.04 571.951 207.08 572.217 209.058C572.416 210.541 572.641 211.989 572.895 213.395C572.979 213.863 573.067 214.327 573.158 214.786C574.201 217.651 574.877 219.591 576.526 222.204C578.219 224.894 582.595 227.739 584.89 230.453C585.081 230.679 585.257 230.905 585.417 231.129C585.732 231.571 585.978 232.01 586.138 232.442H586.143L592.513 234.19C592.877 233.971 593.3 233.814 593.806 233.749C603.983 232.437 611.258 228.576 618.136 220.475C619.846 217.422 621.181 215.405 621.834 211.929L621.971 209.768C623.317 187.182 622.486 156.913 622.486 134.234C622.276 119.689 622.163 105.141 622.148 90.5947L617.993 84.8506C614.251 81.1449 613.771 80.7194 609.249 78.0596C606.999 77.4305 605.169 77.1585 603.451 75.6455L604.044 74.4121C604.316 74.199 604.616 74.0024 604.94 73.8213C605.103 73.7307 605.271 73.6437 605.445 73.5605C610.497 71.1505 620.386 71.8232 625.613 71.5508C630.161 71.3136 634.537 70.8898 638.814 70.2861C639.765 70.1519 640.711 70.0083 641.653 69.8564C649.187 68.6418 656.463 66.8639 663.898 64.5605C665.293 64.1286 666.692 63.6786 668.101 63.21C669.039 62.8976 669.982 62.5765 670.929 62.248Z" fill="white"/>
<path fill-rule="evenodd" clip-rule="evenodd" d="M499.821 51.1084C500.58 54.1419 499.335 61.7361 499.108 65.2676C498.247 78.6792 495.246 108.1 488.635 119.118C487.934 120.27 487.175 121.386 486.362 122.463C483.824 127.186 476.288 136.373 471.217 138.31C470.361 138.728 470.578 138.564 469.477 138.513C468.87 137.936 468.135 137.237 467.272 136.416C466.322 128.383 471.869 116.84 467.551 108.666C463.901 101.76 454.218 96.7348 447.035 94.9863C437.25 92.6044 436.559 90.8874 428.024 95.6445C423.946 100.408 420.31 105.77 415.461 110.145C414.167 111.313 412.434 115.096 411.315 116.012C399.032 144.526 398.705 162.711 405.305 192.092C411.419 208.575 416.288 212.726 428.929 224.357C427.597 224.603 427.333 224.578 426.023 224.573C426.744 225.862 427.946 226.815 429.183 227.731L430.416 228.647C433.763 229.606 437.118 230.104 440.448 230.207C441.473 230.239 442.495 230.233 443.515 230.191C443.769 230.181 444.024 230.169 444.278 230.154C444.787 230.125 445.295 230.087 445.802 230.04C456.952 229.011 467.622 223.853 476.569 217.088C478.225 215.107 482.761 213.042 484.949 210.455C486.251 208.916 487.45 207.397 488.558 205.887C489.112 205.132 489.643 204.379 490.153 203.627C496.783 193.852 499.807 184.232 502.395 171.841L502.962 170.326C504.457 170.585 504.419 171.652 504.761 171.634C507.587 171.478 506.265 170.759 508.283 172.487C508.713 175.16 508.754 177.326 508.926 179.835L509.009 180.934C508.71 188.323 508.085 195.065 506.609 201.413C506.496 201.901 506.378 202.387 506.254 202.871C506.192 203.113 506.129 203.354 506.064 203.595C505.935 204.076 505.8 204.556 505.66 205.033C504.889 207.658 503.948 210.222 502.797 212.742C502.588 213.2 502.371 213.657 502.147 214.112C499.913 218.667 496.962 223.093 493.054 227.502C490.142 233.42 485.246 237.983 480.683 242.619L479.775 243.548L479.41 244.027C471.65 254.054 458.319 261.954 448.362 269.706C442.547 274.233 437.623 278.608 432.168 283.576C426.958 281.592 425.157 281.469 422.405 276.544L422.157 276.12C416.656 267.121 392.82 252.242 384.98 245.765C376.536 238.727 369.117 230.545 362.939 221.454C360.533 217.868 356.591 211.753 355.485 207.729C343.941 188.546 345.001 166.582 349.646 145.859C356.165 118.828 371.445 104.736 391.744 88.1826L379.51 80.0742C377.824 79.2922 376.154 78.4752 374.501 77.625L374.744 76.7471C377.022 75.3036 385.16 74.0399 395.279 72.9629C397.119 72.7671 399.024 72.5779 400.972 72.3945C419.474 70.6519 441.783 69.4702 447.905 68.8857C453.402 68.3605 462.332 68.8254 470.5 68.2949C471.36 68.2391 472.211 68.172 473.049 68.0918C474.515 67.9514 475.941 67.7706 477.299 67.5361C477.881 67.4356 478.451 67.3252 479.007 67.2041C479.747 67.0427 480.462 66.8621 481.146 66.6602C481.489 66.5591 481.824 66.4529 482.15 66.3408C482.64 66.1728 483.111 65.9913 483.562 65.7969C483.862 65.6672 484.153 65.5317 484.435 65.3896C484.575 65.3187 484.713 65.246 484.849 65.1719L485.606 64.5488C489.347 61.3892 492.376 57.5523 495.21 53.5908L495.684 51.999L496.685 51.9219L497.031 51.8857C498.465 51.7245 498.541 51.715 499.821 51.1084Z" fill="white"/>
</svg>
